<svg width="29" height="29" viewBox="0 0 29 29" fill="none" xmlns="http://www.w3.org/2000/svg">
<path d="M14.5098 0.828749C22.0911 0.817915 28.3738 7.07084 28.3707 14.6223C28.3676 22.3054 22.184 28.5691 14.5934 28.5815C6.91299 28.5924 0.621017 22.3998 0.617921 14.8251C0.614825 7.05536 6.78452 0.839584 14.5098 0.828749ZM16.0546 23.1009C16.0546 20.301 16.0546 17.56 16.0546 14.7477C16.9322 14.7477 17.7185 14.7477 18.5079 14.7477C18.5079 13.5791 18.5079 12.4849 18.5079 11.2916C17.6751 11.2916 16.8919 11.2916 16.1227 11.2916C15.9508 9.89549 16.0855 9.73453 17.3563 9.7175C17.7355 9.71286 18.1147 9.71595 18.5156 9.71595C18.5156 8.51025 18.5156 7.4129 18.5156 6.28458C17.525 6.28458 16.5746 6.26756 15.6258 6.28768C13.8148 6.32947 12.4945 7.63732 12.414 9.46212C12.3877 10.0657 12.4094 10.6725 12.4094 11.3334C11.685 11.3334 11.0999 11.3334 10.4854 11.3334C10.4854 12.5066 10.4854 13.6194 10.4854 14.7833C11.1247 14.7833 11.7082 14.7833 12.3738 14.7833C12.3738 17.577 12.3738 20.3212 12.3738 23.1009C13.6059 23.1009 14.7559 23.1009 16.0546 23.1009Z" fill="#4BACFF"/>
<path d="M16.0542 23.1007C14.7556 23.1007 13.6055 23.1007 12.3734 23.1007C12.3734 20.321 12.3734 17.5768 12.3734 14.7831C11.7079 14.7831 11.1243 14.7831 10.4851 14.7831C10.4851 13.6191 10.4851 12.5063 10.4851 11.3331C11.0996 11.3331 11.6831 11.3331 12.409 11.3331C12.409 10.6722 12.3874 10.0655 12.4137 9.46183C12.4926 7.63546 13.8145 6.3276 15.6255 6.28736C16.5743 6.26569 17.5231 6.28426 18.5153 6.28426C18.5153 7.41259 18.5153 8.5084 18.5153 9.71566C18.1144 9.71566 17.7352 9.71102 17.3559 9.71721C16.0852 9.73424 15.9505 9.89675 16.1223 11.2913C16.8916 11.2913 17.6748 11.2913 18.5075 11.2913C18.5075 12.4846 18.5075 13.5789 18.5075 14.7475C17.7197 14.7475 16.9334 14.7475 16.0542 14.7475C16.0542 17.5597 16.0542 20.3008 16.0542 23.1007Z" fill="white"/>
</svg>
