<svg width="37" height="36" viewBox="0 0 37 36" fill="none" xmlns="http://www.w3.org/2000/svg">
<g clip-path="url(#clip0_378_3440)">
<path d="M27.621 9.129C26.7934 9.34738 26.7934 9.34738 26.7934 10.1058C26.7934 11.4349 26.7529 12.764 26.8053 14.0908C26.8623 15.5772 26.213 16.6808 25.0643 17.5497C23.7562 18.5383 22.2388 19.029 20.6311 19.2662C18.3193 19.609 16.0408 19.4634 13.8599 18.5923C13.1488 18.3081 12.4614 17.916 11.8454 17.4628C10.7324 16.6433 10.1449 15.5443 10.1925 14.1213C10.24 12.71 10.1877 11.294 10.2139 9.88277C10.221 9.5141 10.0902 9.34973 9.75724 9.21353C8.46817 8.68519 7.191 8.12162 5.90669 7.58153C5.52853 7.42185 5.24313 7.20582 5.23362 6.76905C5.2241 6.30645 5.52615 6.08572 5.92096 5.91665C9.94275 4.20716 13.9574 2.47888 17.9863 0.785823C18.2789 0.663716 18.7189 0.65902 19.0114 0.783475C23.0403 2.47888 27.055 4.20716 31.0768 5.919C31.4716 6.08807 31.7736 6.31115 31.7641 6.7714C31.757 7.20816 31.4716 7.43124 31.091 7.58388C30.6439 7.76469 30.2158 7.99951 29.7592 8.14275C29.3453 8.2719 29.2692 8.50437 29.2716 8.89652C29.2883 11.6557 29.2811 14.4148 29.2811 17.1716C29.2811 17.2914 29.2811 17.4111 29.2811 17.5285C29.2787 18.2212 28.991 18.5993 28.463 18.6064C27.9326 18.6134 27.6234 18.2283 27.621 17.5497C27.6187 15.131 27.621 12.7147 27.621 10.2961C27.621 9.91095 27.621 9.52584 27.621 9.129ZM28.7079 6.92873C28.7079 6.85593 28.7103 6.78314 28.7103 6.708C28.5248 6.62346 28.3417 6.53423 28.1562 6.45439C25.1024 5.15348 22.0438 3.85493 18.9948 2.53758C18.6499 2.38965 18.3788 2.37556 18.0244 2.52819C14.9444 3.85962 11.8549 5.16992 8.76785 6.48727C8.60136 6.55771 8.44201 6.6446 8.21607 6.75496C8.36828 6.8348 8.44915 6.88646 8.53952 6.92403C11.7527 8.29538 14.9634 9.67378 18.1837 11.0263C18.3859 11.1109 18.6927 11.0827 18.902 10.9958C20.7595 10.2209 22.6075 9.42252 24.4578 8.62883C24.5839 8.57482 24.7052 8.50672 24.9216 8.40105C24.6766 8.35409 24.5434 8.31886 24.4079 8.30243C22.4553 8.06056 20.5026 7.82105 18.55 7.58153C17.9578 7.50873 17.6129 7.14476 17.6748 6.65868C17.7366 6.17261 18.16 5.88378 18.7474 5.95657C21.6252 6.31115 24.5006 6.68451 27.3808 7.02031C27.8137 7.06962 28.2656 6.96395 28.7079 6.92873ZM11.8645 10.1387C11.8645 11.496 11.9049 12.7852 11.8502 14.072C11.8098 15.0253 12.1998 15.7228 12.9466 16.2488C13.3509 16.5329 13.7862 16.7935 14.2428 16.9837C16.2549 17.8291 18.3526 17.9629 20.4907 17.6295C21.7299 17.4369 22.9095 17.0659 23.9441 16.3356C24.7313 15.7791 25.2308 15.077 25.1428 14.0532C25.0928 13.4779 25.1333 12.8955 25.1333 12.3179C25.1333 11.6134 25.1333 10.9089 25.1333 10.1528C24.9168 10.235 24.7718 10.2843 24.6314 10.343C22.8429 11.1062 21.0473 11.8553 19.2706 12.6443C18.7403 12.8791 18.2884 12.8979 17.7485 12.656C16.086 11.9093 14.3998 11.2119 12.723 10.4957C12.459 10.3829 12.1927 10.2749 11.8645 10.1387Z" fill="#EE1C46"/>
<path d="M35.999 13.194C35.999 11.5172 34.8691 10.4419 33.0708 10.4419C31.6055 10.4419 32.391 10.4419 30.9258 10.4419V13.0137C32.4406 13.0137 31.7023 13.0137 33.2171 13.0137C33.2171 18.5033 33.2171 20.2346 33.2171 25.7388C23.361 25.7388 13.5793 25.7388 3.7435 25.7388C3.7435 20.2325 3.7435 18.541 3.7435 13.0137C5.28301 13.0137 4.7946 13.0137 6.33186 13.0137V10.4461C4.83286 10.4461 5.35954 10.4461 3.86054 10.4461C2.1162 10.4461 0.986328 11.5235 0.986328 13.1542C0.986328 18.5305 0.988579 20.134 0.986328 25.5103C0.986328 27.227 2.12296 28.2939 3.97082 28.2918C6.69198 28.2918 9.41314 28.2897 12.1343 28.2897C12.4314 28.2897 12.7262 28.2897 13.0413 28.2897C13.0413 29.1721 13.0413 29.9434 13.0413 30.8007C12.2806 30.8007 11.5581 30.7944 10.8379 30.8028C9.85203 30.8133 9.24208 31.2954 9.23758 32.05C9.23308 32.8024 9.84303 33.3076 10.8221 33.3097C16.0686 33.3181 21.3151 33.3181 26.5616 33.3118C27.4957 33.3118 28.0764 32.8297 28.0944 32.0898C28.1146 31.3226 27.5137 30.8154 26.5413 30.8028C25.6793 30.7923 24.815 30.8007 23.9102 30.8007C23.9102 29.9539 23.9102 29.1826 23.9102 28.2939C24.2523 28.2939 24.5269 28.2939 24.8038 28.2939C27.5249 28.2939 30.2461 28.2981 32.9672 28.2939C34.8736 28.2918 35.999 27.2417 35.999 25.4705C36.0013 20.1214 35.999 18.5431 35.999 13.194ZM21.117 30.7609C19.3592 30.7609 17.6374 30.7609 15.821 30.7609C15.821 29.9393 15.821 29.1679 15.821 28.3442C17.5811 28.3442 19.3232 28.3442 21.117 28.3442C21.117 29.1449 21.117 29.933 21.117 30.7609Z" fill="#FBA2B4"/>
</g>
<defs>
<clipPath id="clip0_378_3440">
<rect width="37" height="35" fill="white" transform="translate(0 0.691895)"/>
</clipPath>
</defs>
</svg>
