<svg width="36" height="37" viewBox="0 0 36 37" fill="none" xmlns="http://www.w3.org/2000/svg">
<g clip-path="url(#clip0_378_3412)">
<path d="M32.6567 19.0852C30.7993 17.2233 28.3425 16.1986 25.7373 16.1986H25.7354C20.3246 16.2005 15.9176 20.6019 15.9102 26.0131C15.9065 28.6194 16.9289 31.0791 18.7882 32.941C20.6474 34.801 23.1098 35.8276 25.7224 35.8294C25.7262 35.8294 25.728 35.8294 25.7317 35.8294C28.3407 35.8294 30.8012 34.8084 32.6549 32.9558C34.5123 31.0995 35.5366 28.6398 35.5366 26.0261C35.5366 23.4124 34.5142 20.949 32.6567 19.0852ZM33.6662 26.0688C33.642 30.4256 30.0849 33.9601 25.7299 33.9601C25.7224 33.9601 25.715 33.9601 25.7076 33.9601C23.5737 33.9545 21.5734 33.121 20.0759 31.6118C18.5803 30.1045 17.7602 28.0996 17.7713 25.9667C17.7899 21.608 21.3656 18.0624 25.7391 18.0624H25.7429C27.8619 18.0643 29.853 18.894 31.3485 20.3995C32.8553 21.9162 33.6791 23.9303 33.6662 26.0688Z" fill="#EE1C46"/>
<path d="M5.31953 18.653C5.19634 19.3256 5.20261 20.017 5.20678 20.6875V20.8086C5.21096 21.3141 5.58678 21.6546 6.14425 21.6546C7.1715 21.6567 8.11106 21.6567 9.01721 21.6567C9.90666 21.6567 10.7648 21.6546 11.6375 21.6525C12.2138 21.6504 12.5687 21.2911 12.5854 20.6937C12.5896 20.5517 12.5875 20.4118 12.5875 20.2697C12.5854 20.1319 12.5854 19.9961 12.5896 19.8582C12.6376 18.4671 12.1261 17.3601 11.0696 16.5663C11.9862 15.2546 11.5874 13.7549 10.6938 12.959C9.66655 12.0442 8.11524 12.0442 7.0859 12.9611C6.19854 13.7507 5.8081 15.2421 6.71216 16.5622C5.93546 17.1449 5.46777 17.8467 5.31953 18.653ZM9.50369 15.5951C9.33875 15.7601 9.12161 15.8499 8.88985 15.8499H8.88776C8.656 15.8499 8.43677 15.7559 8.27183 15.5909C8.10688 15.4238 8.0171 15.2024 8.0171 14.9684C8.01919 14.4838 8.41172 14.0911 8.89194 14.0911H8.89402C9.37633 14.0932 9.76677 14.488 9.76468 14.9747C9.76259 15.2086 9.67073 15.43 9.50369 15.5951ZM7.73733 18.0765C8.33655 17.6044 9.15292 17.5439 9.81479 17.924C10.4808 18.3063 10.7961 18.9454 10.7543 19.8269H7.02117C6.93348 19.1752 7.20491 18.4943 7.73733 18.0765Z" fill="#FBA2B4"/>
<path d="M25.7594 9.24562C25.7204 6.90292 24.0467 5.24892 21.6882 5.22479C21.2151 5.21922 20.7419 5.22108 20.2724 5.22293H19.8883C19.7417 3.87523 19.5098 3.73044 18.0773 3.73044C17.9697 3.72858 17.8528 3.73415 17.7396 3.73786C17.4835 3.74529 17.2423 3.75457 17.0159 3.71558C16.8953 3.69517 16.7301 3.57265 16.6986 3.49839C15.949 1.74972 14.6037 0.784424 12.9114 0.784424C12.9114 0.784424 12.9114 0.784424 12.9095 0.784424C11.2117 0.784424 9.86452 1.74972 9.11673 3.50025C9.08518 3.5745 8.8922 3.70259 8.76602 3.71558C8.43387 3.749 8.09987 3.74343 7.74546 3.73786C7.53763 3.73415 7.32981 3.73229 7.12198 3.736C6.39831 3.75271 5.9808 4.16482 5.97895 4.86466C5.97895 4.97604 5.97153 5.08928 5.9641 5.22479H5.58186C5.13652 5.22479 4.71345 5.22479 4.28852 5.22479C1.71669 5.23407 0.0522439 6.88807 0.0503883 9.44054C0.0448216 16.1976 0.0466772 22.3495 0.0503883 28.2471C0.0522439 30.7476 1.74082 32.4295 4.24955 32.435C6.59686 32.4387 8.94601 32.4387 11.2933 32.4369H13.9653C14.0043 32.4369 14.0488 32.4424 14.0915 32.4462C14.149 32.4517 14.2721 32.4369 14.3371 32.4369C14.4502 32.4369 14.4978 32.4369 14.625 32.4369L14.8728 32.3718C15.1473 32.1642 15.3214 31.9205 15.357 31.453C15.331 31.0632 15.1882 30.7493 14.8728 30.521C14.6779 30.3799 14.1899 30.3578 13.9709 30.3745C13.9097 30.3801 13.8484 30.3838 13.7928 30.3838C12.9114 30.3838 12.03 30.3763 11.1504 30.3708C9.05735 30.3559 6.89375 30.3392 4.7654 30.4079C3.83947 30.4357 3.14734 30.2371 2.71499 29.812C2.27337 29.3795 2.06554 28.7056 2.07668 27.7515C2.12863 23.7269 2.11935 19.6356 2.11008 15.6797C2.10636 14.0591 2.10265 12.4385 2.10265 10.8161C2.10265 10.6657 2.1008 10.5154 2.1008 10.365C2.09709 9.92504 2.09523 9.47024 2.11935 9.02843C2.1676 8.18751 2.77252 7.45611 3.49433 7.36329C4.09554 7.28533 4.70788 7.30389 5.35548 7.32245C5.55773 7.32802 5.76556 7.33545 5.97338 7.3373C5.97709 7.37443 5.97895 7.4097 5.9808 7.44497C6.05503 9.3403 6.96983 10.2239 8.8588 10.2258L10.4861 10.2276C12.7203 10.2295 14.9525 10.2313 17.1866 10.2239C18.7787 10.2202 19.7807 9.25676 19.8661 7.65103C19.8735 7.53036 19.8846 7.4097 19.8958 7.2779H20.2483C20.6714 7.2779 21.0796 7.27605 21.486 7.27976C22.9964 7.28718 23.7349 8.02044 23.7442 9.51665C23.7516 10.792 23.7516 12.0988 23.7442 13.4001C23.7387 14.4248 24.286 14.6457 24.7462 14.6494C25.045 14.6569 25.2862 14.564 25.4606 14.3914C25.6703 14.1835 25.7705 13.8642 25.7668 13.415C25.7631 12.8636 25.7649 12.3123 25.7668 11.761C25.7705 10.9367 25.7742 10.0847 25.7594 9.24562ZM8.00895 5.85594V5.78355C8.13327 5.78355 8.25574 5.78169 8.37635 5.77983C8.8254 5.77612 9.24847 5.77241 9.66598 5.78912C10.4602 5.82067 10.9055 5.43084 10.9983 4.63076C11.1245 3.5448 11.8389 2.85981 12.8631 2.84125C12.878 2.84125 12.8928 2.84125 12.9095 2.84125C13.9635 2.84125 14.6983 3.50953 14.83 4.59363C14.9358 5.45683 15.3923 5.83553 16.2644 5.79283C16.6485 5.77241 17.0419 5.77798 17.4594 5.78169C17.5707 5.78355 17.6839 5.78355 17.8008 5.7854C17.8027 5.93205 17.8064 6.07871 17.8082 6.22536C17.8194 6.77855 17.8286 7.30018 17.7823 7.81995C17.7618 8.05756 17.6449 8.17823 17.0697 8.17823C17.066 8.17823 17.0604 8.17823 17.0567 8.17823C15.9193 8.17266 14.7799 8.17266 13.6406 8.17266C12.9856 8.17266 12.3306 8.17266 11.6756 8.17266H9.71051C8.84025 8.17266 8.31326 8.17266 8.14812 8.00373C7.98297 7.8348 7.99039 7.30946 8.00524 6.43698C8.00895 6.2532 8.00895 6.06942 8.00895 5.85594Z" fill="#EE1C46"/>
<path d="M3.92315 23.6368C3.91689 23.9251 4.00876 24.1569 4.19875 24.3261C4.42634 24.5287 4.7771 24.6164 5.27611 24.6206C6.1238 24.6123 6.98611 24.6144 7.82127 24.6164C8.52489 24.6164 9.22852 24.6164 9.93214 24.6164C10.7861 24.6144 11.6693 24.6123 12.5358 24.6206C12.5462 24.6206 12.5566 24.6206 12.565 24.6206C13.6173 24.6206 13.8595 24.1235 13.8741 23.7057C13.8845 23.4196 13.7948 23.1877 13.6069 23.0185C13.3814 22.8138 13.0285 22.7157 12.5274 22.7157C12.5274 22.7157 12.5274 22.7157 12.5253 22.7157C10.1034 22.7157 7.68347 22.7178 5.2615 22.7157C5.2615 22.7157 5.2615 22.7157 5.25941 22.7157C4.1737 22.7115 3.93359 23.2149 3.92315 23.6368Z" fill="#FBA2B4"/>
<path d="M30.0164 22.371C29.8067 22.1872 29.5877 22.1055 29.3688 22.1222C29.0143 22.1501 28.7323 22.4359 28.5245 22.6828C28.3686 22.8685 28.209 23.0485 28.0495 23.2304L24.1843 27.6393L23.6128 27.0582C23.0672 26.5032 22.544 25.9723 22.017 25.4451C21.5754 25.0014 21.0669 24.9736 20.6568 25.3671C20.4564 25.5602 20.3544 25.7755 20.3507 26.0057C20.347 26.2526 20.4639 26.5013 20.6884 26.7278C21.7925 27.8435 22.6943 28.7456 23.5311 29.568C23.7575 29.7908 23.9987 29.904 24.2455 29.904C24.2529 29.904 24.2585 29.904 24.2659 29.904C24.5257 29.8966 24.7725 29.7685 25.0007 29.5179C25.2234 29.2747 25.4442 29.0222 25.6558 28.7772C25.743 28.677 25.8302 28.5749 25.9192 28.4746L27.0474 27.1863C28.0086 26.0874 28.9698 24.9884 29.9347 23.8932C30.1425 23.6556 30.3801 23.3381 30.3559 22.9798C30.3411 22.7589 30.226 22.5547 30.0164 22.371Z" fill="#EE1C46"/>
</g>
<defs>
<clipPath id="clip0_378_3412">
<rect width="36" height="36" fill="white" transform="translate(0 0.793701)"/>
</clipPath>
</defs>
</svg>
