<svg width="31" height="24" viewBox="0 0 31 24" fill="none" xmlns="http://www.w3.org/2000/svg">
<g clip-path="url(#clip0_378_3434)">
<path d="M30.8729 9.03375C30.4161 9.51042 29.9578 9.98461 29.5058 10.4671C27.7174 12.3762 25.9321 14.2887 24.1452 16.1986C24.0422 16.3091 23.8724 16.3091 23.7679 16.2003C22.3874 14.7513 21.0133 13.3081 19.6454 11.8715C19.5409 11.7618 19.5416 11.5845 19.6462 11.4756C20.2319 10.8646 20.8073 10.2634 21.3969 9.64814C21.4983 9.54176 21.6618 9.53846 21.7664 9.64154C22.4204 10.2831 23.0855 10.9355 23.7474 11.5837C23.8528 11.6868 24.0163 11.6835 24.1185 11.5771C25.6491 9.97307 27.1765 8.37317 28.7204 6.75596C28.8242 6.6471 28.9924 6.64628 29.097 6.75431C29.707 7.38107 30.2896 7.9798 30.8697 8.57522C30.8721 8.75335 30.8721 8.85397 30.8729 9.03375Z" fill="#EE1C46"/>
<path d="M22.007 22.0595C22.0172 20.4752 21.7421 18.9487 21.1297 17.4989C19.9293 14.6562 17.7399 12.5582 15.1316 11.5521C16.5521 10.3967 17.4726 8.59477 17.4797 6.57346C17.4907 3.10895 14.766 0.245635 11.4501 0.236563C8.13583 0.227492 5.41347 3.07349 5.40797 6.5512C5.40483 8.60302 6.3411 10.4297 7.79072 11.5876C4.36478 12.8312 2.15812 15.485 1.16367 19.4295C1.02217 19.992 0.972646 20.58 0.879883 21.1564C0.879883 21.9588 0.879883 22.7621 0.879883 23.5645C1.01667 23.5579 1.15345 23.5447 1.29024 23.5447C8.05093 23.5439 14.8116 23.5439 21.5723 23.5439C21.7067 23.5439 21.8419 23.5439 22.007 23.5439C22.007 23.0227 22.0039 22.5411 22.007 22.0595ZM11.4493 3.40831C13.1183 3.41573 14.4579 4.82842 14.4516 6.57429C14.4453 8.31603 13.0892 9.72789 11.4289 9.72295C9.77647 9.718 8.41726 8.28469 8.42198 6.55202C8.42669 4.81523 9.78905 3.40089 11.4493 3.40831ZM4.09435 20.3565C4.50786 17.607 7.1799 14.0064 11.5421 14.0616C15.8713 14.1161 18.4097 17.743 18.7949 20.3565C13.8934 20.3565 8.99428 20.3565 4.09435 20.3565Z" fill="#EE1C46"/>
</g>
<defs>
<clipPath id="clip0_378_3434">
<rect width="29.9931" height="23.3279" fill="white" transform="translate(0.879883 0.236816)"/>
</clipPath>
</defs>
</svg>
