<svg width="33" height="31" viewBox="0 0 33 31" fill="none" xmlns="http://www.w3.org/2000/svg">
<g clip-path="url(#clip0_378_3376)">
<path d="M15.339 20.5221C15.3418 19.5918 15.3446 18.6274 15.2657 17.68C15.0287 14.7497 13.1363 12.3344 10.4938 11.2846C10.9224 11.0484 11.3229 10.7611 11.6754 10.414C12.7302 9.37845 13.3197 7.95313 13.3338 6.39979C13.3648 3.19068 10.9394 0.630227 7.81449 0.564793C6.28308 0.539188 4.83629 1.10818 3.73638 2.18357C2.63083 3.26465 2.01037 4.72127 1.99345 6.28314C1.97653 7.78528 2.54058 9.20206 3.57844 10.2718C3.95918 10.6644 4.38786 10.9915 4.85321 11.2533C2.54904 12.175 0.760993 14.2177 0.247703 16.8038C0.0249015 17.9304 0.0136205 19.1053 0.00515964 20.2433L0.00233937 20.5221C-0.0286836 23.7881 0.0925881 23.9361 3.30206 24.2433C3.31334 24.249 3.32462 24.2547 3.34154 24.2632C3.36128 24.2746 3.38667 24.286 3.41769 24.3031C3.49666 25.2106 3.57844 25.808 3.65741 26.3856C3.75612 27.0883 3.84637 27.754 3.91688 28.9119C3.95918 29.6316 4.17352 30.5762 5.56392 30.5591C7.09532 30.525 8.47162 30.5278 9.77458 30.5619C9.80278 30.5619 9.83099 30.5619 9.85919 30.5619C10.8435 30.5619 11.3568 30.0811 11.4244 29.0911C11.478 28.3116 11.5457 27.9588 11.619 27.5833C11.6924 27.2049 11.7685 26.8151 11.8221 25.9901L11.8277 25.9161C11.8813 25.0769 11.9152 24.5705 12.0985 24.3941C12.2846 24.2177 12.7838 24.2063 13.6553 24.2063C14.2983 24.2063 14.7298 24.0698 15.0062 23.7796C15.2685 23.5036 15.3869 23.0883 15.3644 22.5136C15.3362 21.8536 15.339 21.1765 15.339 20.5221ZM7.71578 9.94459C7.71014 9.94459 7.7045 9.94459 7.69604 9.94459C6.72023 9.94459 5.8121 9.56906 5.13805 8.88343C4.45837 8.19495 4.08891 7.2675 4.09737 6.27461C4.11712 4.30021 5.71903 2.67859 7.66784 2.65868C7.67912 2.65868 7.6904 2.65868 7.70168 2.65868C8.63519 2.65868 9.51794 3.03421 10.1948 3.71415C10.8971 4.42255 11.2806 5.36138 11.2721 6.35711C11.2524 8.35996 9.69279 9.93321 7.71578 9.94459ZM13.2576 20.9147C13.2548 21.2846 13.2492 21.6516 13.2492 22.0157C13.2379 22.0214 13.2238 22.0299 13.2125 22.0356C13.1786 22.0555 13.1533 22.0698 13.1589 22.0755C10.1525 22.212 10.0284 22.3344 9.80842 25.3301L9.8056 25.3585C9.75202 26.1011 9.68715 26.3912 9.61665 26.6957C9.54896 27.0001 9.47845 27.313 9.41077 28.0328C9.40231 28.1153 9.36846 28.2149 9.32616 28.3287C9.32334 28.3372 9.32052 28.3457 9.3177 28.3543H5.99542C5.92209 27.5719 5.83466 27.0314 5.75851 26.5534C5.64852 25.8592 5.55263 25.259 5.51033 24.1124C5.47931 23.2959 5.27625 22.7412 4.88141 22.4112C4.49785 22.0897 3.93944 21.9873 3.17797 22.1011C2.93542 22.138 2.67032 22.1295 2.3347 22.1181C2.23035 22.1153 2.11754 22.1124 1.99909 22.1096C2.02165 21.6004 2.03576 21.094 2.04704 20.6018C2.07806 19.2959 2.10626 18.0641 2.34599 16.8692C2.84517 14.3827 5.55545 12.5506 8.2601 12.8635C10.9901 13.1821 13.1279 15.3984 13.2379 18.0243C13.2802 18.9887 13.2689 19.9674 13.2576 20.9147Z" fill="#EE1C46"/>
<path d="M28.6594 26.6901H20.5822C19.9589 26.6901 19.4541 26.1809 19.4541 25.5521C19.4541 24.9234 19.9589 24.4142 20.5822 24.4142H28.6566C29.8073 24.4142 30.7436 23.4696 30.7436 22.3089V4.94616C30.7436 3.78543 29.8073 2.8409 28.6566 2.8409H16.1262C15.5029 2.8409 14.998 2.33166 14.998 1.70292C14.998 1.07419 15.5029 0.564941 16.1262 0.564941H28.6566C31.051 0.564941 32.9998 2.5308 32.9998 4.94616V22.3117C32.9998 24.7271 31.051 26.6901 28.6594 26.6901Z" fill="#FBA2B4"/>
<path d="M21.7191 18.4767C21.3835 18.4767 21.0648 18.326 20.8505 18.0642L17.5395 14.0329C17.1418 13.5493 17.2095 12.8324 17.689 12.4312C18.1684 12.0301 18.8791 12.0984 19.2768 12.582L21.6966 15.5294L26.6433 9.21074C27.0297 8.71856 27.7376 8.63321 28.2283 9.02297C28.7162 9.41273 28.8008 10.1268 28.4144 10.6218L22.6047 18.0443C22.3932 18.3146 22.0745 18.4739 21.7332 18.4767C21.7276 18.4767 21.7248 18.4767 21.7191 18.4767Z" fill="#EE1C46"/>
</g>
<defs>
<clipPath id="clip0_378_3376">
<rect width="33" height="30" fill="white" transform="translate(0 0.564941)"/>
</clipPath>
</defs>
</svg>
