<svg width="34" height="35" viewBox="0 0 34 35" fill="none" xmlns="http://www.w3.org/2000/svg">
<path d="M12.023 3.06267C12.023 3.06267 12.023 3.06267 4.84707 3.06457C2.29132 3.06457 0.575421 4.62812 0.575421 6.94962C0.571612 14.7902 0.571612 22.6327 0.573517 30.4732C0.573517 32.789 2.29703 34.3469 4.8566 34.3488C8.39885 34.3526 11.943 34.3507 15.4853 34.3507C18.8923 34.3507 22.3012 34.364 25.7083 34.3449C27.9193 34.3335 29.7038 32.7528 29.6866 30.7132C27.826 32.0006 25.7426 31.9149 23.6591 31.9111C17.4525 31.8939 11.2479 31.9054 5.04133 31.9054C3.92342 31.9054 3.29686 31.475 3.28543 30.7037C3.2721 29.919 3.92533 29.4658 5.0737 29.4639C5.45649 29.4639 5.84119 29.4639 6.22398 29.4639C12.6553 29.4639 19.0865 29.4677 25.5197 29.462C27.5518 29.4601 29.161 28.3726 29.6181 26.6872C29.6828 26.4511 29.719 26.1006 29.5762 25.9426C28.803 25.0799 27.9688 24.2591 27.0414 23.3068C27.0414 24.1467 27.049 24.8532 27.0395 25.5579C27.0242 26.5787 26.5462 27.0091 25.4321 27.0186C25.2074 27.0205 24.9808 27.0186 24.7561 27.0186C17.6125 27.0186 10.4709 27.0186 3.28924 27.0186C3.314 27.0929 3.28924 27.0548 3.28924 27.0167C3.28544 20.275 3.27972 13.5333 3.28734 6.79346C3.28734 5.99741 3.84724 5.53082 4.75185 5.51749C5.47363 5.50606 7.61232 5.52701 7.61232 5.52701L12.023 3.06267Z" fill="#FBA2B4"/>
<path d="M31.8784 5.84592C28.9214 4.34306 25.9662 2.83845 23.0109 1.3321C22.034 0.834049 21.057 0.821859 20.0783 1.32165C17.1039 2.83671 14.1296 4.35177 11.1552 5.86682C10.2827 6.31089 9.80904 7.02314 9.81252 8.00009C9.816 8.97878 10.3053 9.68058 11.1761 10.1212C11.6985 10.3859 12.2053 10.6837 12.7451 10.9083C13.231 11.1103 13.4173 11.3959 13.3999 11.9392C13.3564 13.2836 13.5113 14.6454 13.3529 15.9707C13.17 17.4979 13.8979 18.2607 15.1518 18.7761C15.3329 18.851 15.5053 18.9416 15.6864 19.013C18.2516 20.0248 20.9595 20.1623 23.6674 19.9081C23.697 19.9046 23.6814 19.8524 23.6674 19.868V17.4021C23.3261 17.4021 22.4658 17.3934 22.0827 17.4039C20.1793 17.4509 18.309 17.2872 16.5362 16.5262C16.3377 16.4409 16.0399 16.2545 16.0347 16.1048C15.9929 14.9728 16.0121 13.8374 16.0121 12.5923C17.2972 13.2436 18.4797 13.7817 19.6012 14.426C20.9177 15.1818 22.1594 15.1731 23.4741 14.4225C24.6339 13.7608 25.853 13.2035 27.1347 12.554C27.1347 13.4769 27.1625 14.2954 27.1172 15.1104C27.1033 15.3664 26.9501 15.6729 26.762 15.854C25.9313 16.6568 25.6092 17.7504 26.1595 18.7518C26.8125 19.9377 28.6619 21.6739 28.6619 21.6739C28.6619 21.6739 30.5549 19.5563 30.9206 18.5916C31.2915 17.6129 31.1121 16.6812 30.3459 16.0369C29.7904 15.5701 29.6876 15.093 29.7364 14.4696C29.7573 14.1892 29.7346 13.9053 29.7416 13.6232C29.759 12.8239 29.6841 11.3123 29.6841 11.3123C29.6841 11.3123 31.1365 10.5217 31.807 10.1682C31.8261 10.1577 31.8453 10.1455 31.8644 10.1368C32.7578 9.68581 33.2611 8.97007 33.2506 7.96178C33.2419 6.98483 32.7473 6.28651 31.8784 5.84592ZM27.6554 9.09023C27.5108 9.15641 27.2461 9.02058 27.0615 8.92828C25.4106 8.1098 23.765 7.27913 22.1176 6.45369C21.9434 6.36662 21.771 6.27258 21.5899 6.20292C20.8933 5.93822 20.1967 6.21685 19.9007 6.86815C19.6168 7.49159 19.8345 8.19687 20.4789 8.53645C21.6108 9.13203 22.7619 9.68929 23.906 10.264C24.115 10.3685 24.3205 10.4816 24.6496 10.6558C23.6169 11.18 22.7184 11.6554 21.7989 12.0873C21.616 12.1726 21.3182 12.1708 21.1389 12.0803C18.4065 10.7098 15.6847 9.31662 12.961 7.92695C12.9088 7.90083 12.8705 7.84858 12.7834 7.77022C12.9732 7.66051 13.13 7.5595 13.2937 7.47592C15.8414 6.1768 18.3891 4.87246 20.9473 3.59075C21.1876 3.47059 21.5673 3.38526 21.7797 3.48975C24.5747 4.87594 27.3523 6.2987 30.2832 7.78938C29.3358 8.26653 28.5069 8.70537 27.6554 9.09023Z" fill="#EE1C46"/>
</svg>
