<svg width="34" height="33" viewBox="0 0 34 33" fill="none" xmlns="http://www.w3.org/2000/svg">
<g clip-path="url(#clip0_378_3369)">
<path d="M17.051 0.230103C19.9234 0.230103 21.8132 2.69805 21.1941 5.64293C20.9259 6.91727 22.2794 8.21938 23.5001 7.86105C24.8911 7.45225 26.3549 7.95946 27.152 9.1253C27.9189 10.2482 27.8813 11.679 27.0592 12.7717C26.2321 13.8694 24.8134 14.3135 23.4825 13.8871C22.1917 13.4732 21.327 12.3099 21.4297 10.7908C21.5225 9.41802 20.3545 9.01427 19.7304 8.19667C19.4847 7.87366 19.2015 8.26732 18.9684 8.38088C17.8154 8.94361 16.5848 9.0824 15.4769 8.50201C14.6774 8.08311 14.2137 8.10582 13.7349 8.82501C13.3715 9.3726 12.6622 9.63252 12.8502 10.5914C13.1058 11.891 12.2336 13.2234 11.0681 13.7659C9.90257 14.3085 8.52653 14.0864 7.5841 13.2083C6.55896 12.2493 6.28325 10.6242 6.93744 9.39783C7.64426 8.07049 9.13058 7.45477 10.6846 7.84086C11.8977 8.14367 13.1785 6.88951 12.9178 5.6505C12.3037 2.69805 14.1811 0.230103 17.051 0.230103ZM19.2366 4.43923C19.2115 3.21031 18.1864 2.24382 16.9632 2.29177C15.7877 2.33972 14.8754 3.3062 14.8779 4.4998C14.8829 5.71358 15.9155 6.76586 17.0861 6.7482C18.2541 6.72801 19.2617 5.64545 19.2366 4.43923ZM25.628 10.8993C25.5052 10.3618 25.2947 9.87477 24.6255 9.84196C23.9287 9.80663 23.5076 10.1801 23.465 10.8564C23.4199 11.5781 23.9211 11.9491 24.5553 11.9491C25.1418 11.9516 25.5228 11.5377 25.628 10.8993ZM9.53662 11.9213C10.3663 11.9491 10.7924 11.5377 10.7924 10.9775C10.7924 10.4072 10.4891 9.83187 9.74466 9.83944C9.04787 9.84701 8.66939 10.2482 8.67441 10.9321C8.67691 11.5857 9.11805 11.8658 9.53662 11.9213Z" fill="#EE1C46"/>
<path d="M0.232661 20.1352C0.232661 18.9592 0.220128 17.7833 0.235167 16.6074C0.262738 14.5457 1.54353 13.1275 3.36823 13.1149C5.20295 13.1023 6.48626 14.5053 6.51884 16.5619C6.52135 16.6881 6.52886 16.8143 6.51884 16.9405C6.42109 18.0457 6.32584 19.0829 8.00767 18.881C8.6794 18.8002 9.29849 19.2469 9.70454 19.8071C11.5317 22.3255 13.3088 24.8641 12.9278 28.2531C12.8301 29.1237 12.9053 30.0145 12.9153 30.8977C12.9253 31.6371 12.5995 32.1721 11.8601 32.1923C11.0931 32.2124 10.8124 31.6749 10.8299 30.923C10.8575 29.747 10.7873 28.5686 10.8475 27.3952C10.9778 24.8591 9.36366 23.1179 8.12046 21.2127C7.81969 20.7534 7.30085 20.819 6.88979 21.1067C6.45116 21.4146 6.39853 21.8612 6.67173 22.323C7.22566 23.2567 7.77958 24.1904 8.35356 25.1139C8.75961 25.7675 8.86237 26.3656 8.10041 26.8223C7.35349 27.2715 6.96499 26.7668 6.5815 26.2243C5.10771 24.1399 3.97479 21.9773 4.41843 19.2595C4.57885 18.2779 4.45102 17.2483 4.42345 16.2415C4.4059 15.5904 3.9798 15.2195 3.38828 15.2119C2.85441 15.2043 2.39823 15.5576 2.3857 16.133C2.32555 19.0652 2.13004 22.0076 2.51102 24.9297C2.6163 25.7448 3.10756 26.4791 3.63893 27.1403C4.45102 28.1497 5.23303 29.1868 6.05515 30.1886C6.53137 30.7715 6.79455 31.3923 6.1554 31.9525C5.48869 32.5354 4.96735 32.0938 4.46355 31.5488C1.48839 28.3288 -0.747362 24.8389 0.232661 20.1352Z" fill="#FBA2B4"/>
<path d="M27.6986 18.8961C27.6986 17.9953 27.6835 17.1978 27.7011 16.4029C27.7462 14.4902 29.1197 13.0922 30.9119 13.1174C32.6463 13.1426 33.9697 14.5356 33.9823 16.3903C33.9973 18.7851 33.9572 21.1824 33.9973 23.5746C34.0224 25.1518 33.5637 26.5674 32.6839 27.8191C31.7465 29.1515 30.6988 30.4082 29.6812 31.685C29.23 32.2528 28.651 32.4446 28.057 31.9298C27.5081 31.4529 27.6284 30.9028 28.0495 30.3753C28.8616 29.3634 29.6586 28.3389 30.4732 27.3295C31.4783 26.0779 31.9997 24.6824 31.9596 23.0447C31.9069 20.9452 31.9295 18.8431 31.9545 16.7411C31.9646 15.921 31.7139 15.2144 30.8592 15.2169C30.0171 15.2194 29.7288 15.926 29.7464 16.7386C29.7764 18.3334 29.7764 19.9307 29.8115 21.5256C29.8241 22.1236 29.784 22.704 29.4757 23.2264C28.8591 24.2711 28.2425 25.3133 27.5933 26.3353C27.2549 26.8677 26.8013 27.2261 26.1371 26.8097C25.5029 26.4135 25.5079 25.8356 25.8162 25.2754C26.2975 24.3973 26.8564 23.562 27.3727 22.704C27.7086 22.1438 28.0294 21.5256 27.3026 21.0638C26.6183 20.6297 26.2072 21.0865 25.7736 21.6391C23.9941 23.9102 23.0566 26.4085 23.4301 29.3382C23.5103 29.959 23.4602 30.5974 23.4351 31.2283C23.41 31.8339 22.9915 32.1519 22.4626 32.1847C21.9363 32.2175 21.4776 31.9752 21.4174 31.3494C21.0013 27.0772 21.5252 23.0598 24.5806 19.7516C25.3851 18.886 26.4053 18.6312 27.6986 18.8961Z" fill="#FBA2B4"/>
</g>
<defs>
<clipPath id="clip0_378_3369">
<rect width="34" height="32" fill="white" transform="translate(0 0.230103)"/>
</clipPath>
</defs>
</svg>
