<svg width="34" height="30" viewBox="0 0 34 30" fill="none" xmlns="http://www.w3.org/2000/svg">
<path d="M21.9535 19.5739V21.1705C22.2526 20.9968 22.4571 20.8942 22.6462 20.7679C23.8424 19.9607 25.0347 19.1436 26.231 18.3364C28.7912 16.6135 31.6255 17.2154 33.2963 19.7851C33.4796 20.0693 33.4352 20.4561 33.1728 20.6633C33.1709 20.6653 33.169 20.6653 33.169 20.6673C29.6923 23.379 26.2194 26.0927 22.733 28.7886C22.4918 28.9761 22.1581 29.136 21.8686 29.1379C14.8496 29.1577 7.83246 29.1537 0.813395 29.1517C0.591517 29.1517 0.410156 28.9623 0.410156 28.7333V17.4621C0.410156 17.2293 0.589588 17.0398 0.813395 17.0378C1.7067 17.028 2.60192 16.9944 3.49329 17.0556C4.45219 17.1207 5.18343 16.8503 5.9436 16.1951C8.42477 14.0577 11.9536 14.0597 14.4386 16.1892C15.2007 16.8424 15.9493 17.0931 16.9102 17.0556C17.7745 17.022 18.6389 17.0201 19.511 17.024C20.8615 17.0339 21.9535 18.1726 21.9535 19.5739ZM6.32176 27.0893C6.50505 27.1071 6.65168 27.1308 6.79831 27.1308C11.6063 27.1328 16.4124 27.1387 21.2204 27.117C21.5098 27.115 21.8416 26.9512 22.0828 26.7657C24.8244 24.648 27.5507 22.5126 30.2826 20.3811C30.4524 20.2489 30.6164 20.1087 30.819 19.9429C29.6324 19.1792 28.5134 19.2147 27.4117 19.9548C26.0168 20.8903 24.6392 21.8554 23.2327 22.7731C22.9259 22.9724 22.5709 23.081 22.2082 23.0869C20.3464 23.1165 18.4845 23.1007 16.6208 23.1007C15.7718 23.1007 14.9248 23.1007 14.0624 23.1007C13.5241 23.1007 13.0861 22.6487 13.0861 22.0902C13.0861 21.5317 13.5222 21.0797 14.0624 21.0797H16.559C17.6973 21.0797 18.8357 21.0797 19.9682 21.0797V19.6805C19.9682 19.341 19.702 19.0647 19.374 19.0627C18.3186 19.0568 17.2825 19.039 16.2503 19.0746C15.2162 19.1101 14.3692 18.7647 13.5878 18.068C11.3979 16.1181 8.89168 16.1596 6.72307 18.1016C6.39314 18.3976 6.28317 18.7095 6.28703 19.1436C6.30246 21.5633 6.29282 23.9849 6.29474 26.4065C6.29474 26.6236 6.31211 26.8426 6.32176 27.0893ZM4.28048 27.111C4.28048 24.4033 4.28048 21.7527 4.28048 19.1022C3.60713 19.1022 2.98973 19.1022 2.37233 19.1022C2.37233 21.7942 2.37233 24.4467 2.37233 27.111C3.0206 27.111 3.62256 27.111 4.28048 27.111Z" fill="#FBA2B4"/>
<path d="M29.0629 7.37322C29.0629 7.37322 29.0726 8.04819 29.362 8.22581C30.1665 8.72118 30.838 9.39418 30.9267 10.3257C31.0251 11.354 30.9923 11.802 30.973 12.848C30.9614 13.4045 30.5177 13.8506 29.9717 13.8506H26.7573C26.2075 13.8506 25.7618 13.3986 25.756 12.8361C25.7463 11.9579 25.7367 11.6816 25.7753 10.8171C25.8235 9.70601 26.3927 8.84157 27.3361 8.32252C27.8069 8.06398 27.7066 7.76202 27.7047 7.27848C27.6873 4.77202 27.6989 5.61869 27.695 3.11025C27.695 2.87342 27.668 2.63659 27.6545 2.37805H25.347C25.347 2.68198 25.347 2.94644 25.347 3.21091C25.347 4.78386 25.3315 6.35879 25.3566 7.93174C25.3663 8.58895 25.0749 8.81394 24.0948 9.10209L16.6378 12.9368C15.9451 13.4736 15.5843 13.5446 15.0557 13.2703C12.6594 12.025 10.2998 10.679 7.82632 9.6172C6.23265 8.93433 5.59017 8.04029 5.8217 6.27787C5.98955 5.00688 5.8545 3.69641 5.8545 2.33858H2.63823C2.04784 2.33858 1.57129 1.84913 1.57129 1.24718C1.57129 0.64326 2.04977 0.153809 2.83117 0.153809H30.1414C30.5408 0.153809 31.0232 0.645234 31.0232 1.2531C31.0232 1.85899 30.5428 2.35239 29.9485 2.35239H28.9915L29.0629 7.37322ZM8.03855 2.38002C8.03855 3.92535 8.0289 5.45883 8.05591 6.99231C8.05784 7.12455 8.27393 7.30019 8.42635 7.37914C10.6953 8.55343 12.9662 9.7218 15.2505 10.8645C15.4454 10.9632 15.7715 10.9533 15.9702 10.8546C18.2314 9.7218 20.483 8.56724 22.7288 7.39887C22.9121 7.30414 23.1475 7.06928 23.1513 6.89561C23.1841 5.40357 23.1706 3.91153 23.1706 2.38002C18.1118 2.38002 13.1263 2.38002 8.03855 2.38002ZM29.3215 12.2184C29.3234 11.4862 29.5761 10.7007 28.8353 10.2645C28.5478 10.0948 28.2024 10.0928 27.9092 10.2586C27.1509 10.6849 27.4345 11.4862 27.3921 12.2204C28.16 12.2184 28.6269 12.2184 29.3215 12.2184Z" fill="#EE1C46"/>
<path d="M16.9565 6.60364C16.7366 6.35891 16.4202 6.16747 16.0131 6.03524V4.76819C16.1732 4.81556 16.3256 4.87872 16.4665 4.95766C16.6015 5.03463 16.7597 5.03266 16.889 4.95569C17.0125 4.88266 17.0858 4.75043 17.0858 4.60241C17.0858 4.45834 17.0144 4.32414 16.8928 4.24717C16.6633 4.09915 16.3681 3.99257 16.015 3.92942V3.39062H15.249V3.92942C14.8631 3.99652 14.5467 4.14849 14.3036 4.38334C14.0412 4.63794 13.9081 4.94976 13.9081 5.31093C13.9081 5.49842 13.9583 5.68394 14.0567 5.86551C14.1531 6.04511 14.2882 6.19905 14.458 6.32536C14.6181 6.44378 14.8767 6.56811 15.249 6.70429V8.09962C15.0445 8.04831 14.8535 7.97134 14.6837 7.87266C14.6393 7.847 14.595 7.81937 14.5506 7.78977C14.4213 7.70293 14.2612 7.69898 14.1242 7.77398C13.9853 7.85095 13.9004 7.99699 13.9004 8.15883C13.9004 8.31869 13.9834 8.46474 14.1184 8.53973C14.5274 8.7667 14.9056 8.90682 15.2471 8.95221V9.49693H16.0131V8.94827C16.2407 8.90485 16.4259 8.84367 16.5629 8.76867C16.7153 8.68578 16.8504 8.57526 16.9642 8.44105C17.1958 8.17265 17.3115 7.86082 17.3115 7.51741C17.3096 7.17401 17.1919 6.86613 16.9565 6.60364ZM16.4356 7.57662C16.4356 7.82529 16.2967 7.99305 16.0111 8.08778V7.03388C16.1751 7.12269 16.287 7.20756 16.3468 7.28453C16.4066 7.35952 16.4356 7.45426 16.4356 7.57662ZM14.7802 5.25962C14.7802 5.13134 14.8303 5.02279 14.9326 4.92806C15.0175 4.84911 15.1217 4.79385 15.2471 4.76227V5.77473C15.0715 5.69578 14.948 5.61881 14.8805 5.54184C14.813 5.46882 14.7802 5.37606 14.7802 5.25962Z" fill="#EE1C46"/>
</svg>
