<svg width="33" height="36" viewBox="0 0 33 36" fill="none" xmlns="http://www.w3.org/2000/svg">
<path d="M31.8523 10.0156C28.9027 7.07609 26.1755 4.33904 23.512 1.64524C23.0569 1.18503 22.5345 0.973953 21.8932 0.973953C18.8626 0.984334 15.7819 0.982604 12.803 0.982604C11.2566 0.982604 9.70854 0.982604 8.16218 0.982604C5.62457 0.984334 3.97478 2.62276 3.95581 5.15392C3.94202 7.00861 3.94547 8.89271 3.94892 10.7145C3.95064 11.4516 3.95236 12.1886 3.95236 12.9239C3.95236 12.9464 3.95064 12.9706 3.94892 12.9966C3.93685 13.154 3.91616 13.417 4.0989 13.6367C4.12648 13.6713 4.15579 13.7076 4.18682 13.7457C4.43679 14.0589 4.75054 14.4516 5.19359 14.3893C5.63836 14.3287 5.96246 13.9395 6.22105 13.5658C6.39344 13.3166 6.3693 13.0346 6.35034 12.8287C6.34689 12.7838 6.34172 12.7388 6.34172 12.6972C6.34172 11.8927 6.34172 11.09 6.34172 10.2855C6.34 8.65915 6.34 6.97574 6.34689 5.32174C6.35207 3.97052 6.90372 3.41861 8.24838 3.41688C12.2789 3.40996 16.9628 3.4065 21.526 3.42899C21.6984 3.42899 21.9467 3.52588 22.057 3.63488C23.8878 5.44285 25.7324 7.29927 27.5149 9.09514L28.3579 9.94462C28.289 9.94462 28.2183 9.94462 28.1493 9.94462C27.1288 9.94809 26.1651 9.95155 25.1997 9.93771C24.1705 9.92213 23.5913 9.33908 23.5672 8.29409C23.5603 7.99651 23.562 7.69028 23.562 7.39443C23.5637 7.09685 23.5637 6.78889 23.5568 6.48266C23.5344 5.48438 22.9172 5.13835 22.3363 5.14181C21.5915 5.14873 21.1295 5.6695 21.1347 6.49823C21.1364 6.82349 21.1364 7.14702 21.1364 7.47228L21.1382 8.11589C21.145 10.7422 22.7759 12.3754 25.3962 12.3789C26.5789 12.3806 27.7615 12.3806 28.9682 12.3806H30.0663L30.0681 15.9568C30.0698 20.9551 30.0715 25.9534 30.0646 30.9517C30.0629 32.1611 29.4871 32.7251 28.2511 32.7268C26.272 32.7303 27.0512 32.7286 25.0721 32.7286C23.462 32.7286 21.8519 32.7268 20.2417 32.7286C20.1883 32.7338 20.1434 32.7268 20.0917 32.7268C19.8142 32.7199 19.4694 32.7113 19.1677 32.8826C18.8505 33.0625 18.4178 33.5348 18.4471 34.021C18.473 34.4431 18.816 34.7528 19.1832 35.0262C19.3504 35.1507 19.5384 35.1767 19.7004 35.1767C19.7694 35.1767 19.8314 35.1715 19.8866 35.168C19.9228 35.1646 19.9607 35.1629 19.9952 35.1629L22.3708 35.1646C25.2756 35.1663 25.4221 35.168 28.3269 35.1629C30.8145 35.1594 32.4867 33.4846 32.4885 30.9967C32.4902 28.5019 32.4902 26.0053 32.4902 23.5088C32.4902 19.533 32.4902 15.5571 32.4988 11.583C32.5005 10.955 32.2954 10.4567 31.8523 10.0156Z" fill="#FBA2B4"/>
<path d="M16.4507 6.54321C16.28 6.36847 16.0197 6.28023 15.6784 6.28023C13.7252 6.28023 11.772 6.28196 9.81876 6.2785C9.81704 6.2785 9.81704 6.2785 9.81532 6.2785C8.94301 6.2785 8.8051 6.80446 8.79992 7.11934C8.79648 7.37713 8.86716 7.58301 9.01369 7.7318C9.18781 7.90655 9.45329 7.99305 9.82911 7.99305C9.836 7.99305 9.8429 7.99305 9.85152 7.99305C10.5118 7.98786 11.1738 7.98786 11.8358 7.98959H12.6839H13.4924C14.2096 7.98959 14.9285 7.98786 15.6456 7.99132C15.6491 7.99132 15.6508 7.99132 15.6542 7.99132C16.5197 7.99132 16.6593 7.46883 16.6662 7.15567C16.6679 6.89962 16.5972 6.69373 16.4507 6.54321Z" fill="#FBA2B4"/>
<path d="M12.9981 10.4308C11.8672 10.4273 10.7605 10.4256 9.66059 10.4343C9.39338 10.436 9.17272 10.5208 9.01929 10.6765C8.87103 10.827 8.79518 11.0381 8.7969 11.2872C8.80208 11.7959 9.13824 12.1159 9.67438 12.1246C9.90021 12.128 10.126 12.128 10.3502 12.128C10.5122 12.128 10.6743 12.128 10.8363 12.1263L11.3449 12.1246H11.8241C12.2206 12.1246 12.6171 12.1263 13.0136 12.1229C13.5532 12.1194 13.8963 11.8045 13.9083 11.3028C13.9152 11.0467 13.8394 10.8322 13.6911 10.6799C13.5325 10.519 13.2929 10.4308 12.9981 10.4308Z" fill="#FBA2B4"/>
<path d="M17.5024 17.8651C15.6268 15.9931 13.1375 14.962 10.4878 14.962C10.4757 14.962 10.4619 14.962 10.4499 14.962C7.77607 14.9724 5.26776 16.026 3.38524 17.9326C1.51133 19.8288 0.487323 22.3409 0.501114 25.0019C0.514905 27.6732 1.57167 30.1853 3.4766 32.0746C5.36085 33.9431 7.83985 34.9708 10.4671 34.9708C10.4895 34.9708 10.5119 34.9708 10.5343 34.9708C16.0009 34.9345 20.4417 30.4396 20.4366 24.9517C20.4331 22.2683 19.3901 19.7527 17.5024 17.8651ZM10.455 17.0174C10.4671 17.0174 10.4792 17.0174 10.4912 17.0174C12.591 17.0277 14.5735 17.8669 16.0768 19.3807C17.5783 20.8946 18.4006 22.8807 18.3885 24.9742C18.3661 29.3393 14.8217 32.8808 10.4826 32.8808C10.4757 32.8808 10.4671 32.8808 10.4602 32.8808C6.10903 32.8687 2.57499 29.3081 2.58361 24.943C2.58878 22.8219 3.42316 20.8236 4.93332 19.3184C6.42279 17.834 8.38289 17.0174 10.455 17.0174Z" fill="#EE1C46"/>
<path d="M11.6708 27.5988C11.6415 27.6109 11.5433 27.6092 11.4847 27.6074C11.4467 27.6057 11.4088 27.6057 11.3726 27.6057C11.0554 27.6091 10.7382 27.6074 10.421 27.6074H10.0572C9.62626 27.6074 9.28493 27.6074 9.20045 27.5348C9.11943 27.4656 9.07288 27.1386 9.01599 26.7233C9.01427 26.7112 9.01255 26.6991 9.01255 26.687C9.00393 26.5953 8.98841 26.4413 8.86601 26.3341C8.82981 26.3029 8.79188 26.2648 8.75396 26.2268C8.57812 26.0538 8.37987 25.8583 8.11955 25.8808C7.80235 25.9084 7.36792 26.2026 7.30414 26.5296C7.15588 27.296 7.27138 28.0002 7.63168 28.514C7.94889 28.9656 8.44365 29.2562 9.06599 29.3514C9.2401 29.3791 9.4125 29.3912 9.57972 29.405C9.58144 29.4223 9.58144 29.4379 9.58316 29.4552C9.60558 29.8462 9.6435 30.5002 10.4451 30.5209C10.4589 30.5209 10.4727 30.5209 10.4865 30.5209C11.2933 30.5209 11.3381 29.8566 11.3623 29.4967C11.364 29.4638 11.3674 29.431 11.3691 29.3998C11.445 29.3964 11.5174 29.3929 11.5881 29.3877C12.9 29.3029 13.6689 28.5019 13.6964 27.1887C13.7051 26.7925 13.7016 26.4448 13.6878 26.1212C13.6361 24.9154 12.819 24.1126 11.6088 24.0745C11.1209 24.0589 10.6399 24.0676 10.2745 24.0745C9.75383 24.0866 9.21769 24.0987 9.10391 23.9845C9.01082 23.8929 9.01599 23.5036 9.02289 23.0105C9.02461 22.9101 9.02461 22.8011 9.02634 22.6852C9.02806 22.4188 9.11598 22.3271 9.37802 22.3254C9.81072 22.3219 10.2417 22.3219 10.6744 22.3219H10.8606C11.3157 22.3202 11.6433 22.3219 11.7381 22.3998C11.8294 22.4742 11.8898 22.7821 11.9742 23.2095L11.988 23.2787C12.0518 23.6074 12.4552 23.9776 12.8017 24.0243C13.1534 24.0745 13.593 23.616 13.6568 23.3133C13.8154 22.5641 13.6861 21.8738 13.2913 21.3703C12.8879 20.8565 12.2311 20.5624 11.4416 20.5416C11.4157 20.5416 11.3916 20.5399 11.3657 20.5382C11.3657 20.5208 11.364 20.5018 11.364 20.4828C11.3536 20.1091 11.3329 19.4153 10.5175 19.3911C9.65729 19.3669 9.60902 20.0762 9.58316 20.4586C9.58144 20.4793 9.57972 20.5001 9.57799 20.5209C7.62651 20.8271 7.22829 21.3738 7.24897 23.4984V23.5537C7.26794 25.0053 8.06784 25.8219 9.50042 25.8531C10.0883 25.8652 10.683 25.86 11.2605 25.8548L11.5433 25.8531C11.6967 25.8513 11.8174 25.8877 11.8777 25.9517C11.8932 25.9673 11.9398 26.0174 11.9311 26.1507C11.9191 26.3323 11.9398 26.514 11.9587 26.6887C12.0104 27.1714 12.0208 27.4102 11.6708 27.5988Z" fill="#EE1C46"/>
</svg>
