<svg width="30" height="31" viewBox="0 0 30 31" fill="none" xmlns="http://www.w3.org/2000/svg">
<g clip-path="url(#clip0_378_3392)">
<path d="M22.4108 6.72466C20.8624 4.91252 21.3845 2.79024 22.6111 1.7158C23.9659 0.528385 25.9869 0.526169 27.3395 1.71137C28.5638 2.78359 29.0995 4.8948 27.5871 6.67593C27.6118 6.72023 27.6276 6.78448 27.6681 6.81328C29.3245 7.91651 30.0627 9.46503 29.9952 11.4145C29.9817 11.8199 30.0042 12.2275 29.9907 12.6329C29.9704 13.2422 29.6531 13.5855 29.0477 13.5878C26.3358 13.5988 23.6238 13.5944 20.9119 13.59C20.3875 13.59 19.9914 13.3197 19.9869 12.8102C19.9802 11.7911 19.9577 10.7499 20.1445 9.75523C20.3898 8.44376 21.2495 7.47123 22.4108 6.72466ZM28.1655 11.8354C28.377 10.1562 27.8234 8.90898 26.5811 8.20893C25.4355 7.56427 24.0222 7.66618 22.9847 8.47034C21.9629 9.26122 21.4971 10.617 21.8301 11.8354C23.9299 11.8354 26.0297 11.8354 28.1655 11.8354ZM24.9854 2.56206C24.0154 2.55984 23.2255 3.33521 23.221 4.29445C23.2165 5.25368 24.0042 6.0357 24.9719 6.04013C25.9419 6.04234 26.7319 5.26698 26.7364 4.30774C26.7386 3.34628 25.9554 2.56427 24.9854 2.56206Z" fill="#EE1C46"/>
<path d="M28.7979 23.3839C28.7979 25.3932 28.8024 27.4003 28.7956 29.4096C28.7934 30.4176 28.386 30.8097 27.3463 30.8164C25.9712 30.823 24.5983 30.8252 23.2232 30.8164C22.2195 30.8097 21.7964 30.4154 21.7941 29.465C21.7874 25.3977 21.7874 21.3325 21.7941 17.2652C21.7964 16.3502 22.2195 15.9426 23.1647 15.936C24.5398 15.9249 25.9127 15.9293 27.2877 15.9338C28.3928 15.9382 28.7934 16.3126 28.7956 17.3582C28.8001 19.3675 28.7979 21.3746 28.7979 23.3839ZM26.4055 28.5479C26.4055 25.0587 26.4055 21.6316 26.4055 18.2023C25.6358 18.2023 24.9202 18.2023 24.1707 18.2023C24.1707 21.6626 24.1707 25.0897 24.1707 28.5479C24.9247 28.5479 25.6403 28.5479 26.4055 28.5479Z" fill="#EE1C46"/>
<path d="M13.7636 12.7184C11.9978 14.5302 10.4052 16.1691 8.80657 17.8039C7.89508 18.7368 7.42813 18.7348 6.51053 17.7893C6.0293 17.2916 5.56846 16.773 5.01382 16.1733C4.11662 17.1083 3.28874 17.9726 2.45678 18.8347C2.26103 19.0367 2.07139 19.2575 1.84097 19.4136C1.33731 19.7573 0.81326 19.7344 0.380969 19.297C-0.0513215 18.8597 -0.151238 18.2704 0.266779 17.8205C1.57793 16.4086 2.91966 15.0258 4.30421 13.6889C4.79156 13.2182 5.40737 13.3557 5.87841 13.843C6.44528 14.4323 6.98564 15.0487 7.48318 15.5943C9.00028 14.0533 10.4154 12.6184 11.9244 11.0857C11.4533 11.0857 10.9945 11.0982 10.5378 11.0836C9.69969 11.0587 9.19807 10.6172 9.194 9.92161C9.18992 9.22605 9.69154 8.76165 10.5255 8.75124C11.9223 8.73458 13.3212 8.7325 14.72 8.75124C15.6519 8.76374 16.0495 9.19481 16.0556 10.1548C16.0658 11.5564 16.0638 12.9579 16.0556 14.3594C16.0495 15.2132 15.6233 15.7297 14.9402 15.7443C14.2265 15.7609 13.78 15.2299 13.7698 14.3365C13.7596 13.8763 13.7636 13.4181 13.7636 12.7184Z" fill="#FBA2B4"/>
<path d="M10.8995 25.2359C10.8995 23.8469 10.895 22.4579 10.9017 21.0711C10.9062 20.0565 11.3046 19.6622 12.3398 19.6555C13.7149 19.6489 15.0878 19.6489 16.4629 19.6555C17.4981 19.6622 17.9032 20.0565 17.9032 21.0689C17.9077 23.8469 17.9077 26.6227 17.9032 29.4008C17.901 30.4154 17.4981 30.8119 16.4629 30.8164C15.0878 30.8252 13.7149 30.8252 12.3398 30.8164C11.3046 30.8097 10.904 30.4154 10.8995 29.4008C10.895 28.0117 10.8995 26.6249 10.8995 25.2359ZM13.2896 21.9218C13.2896 24.1704 13.2896 26.3569 13.2896 28.5213C14.0795 28.5213 14.8132 28.5213 15.5244 28.5213C15.5244 26.2904 15.5244 24.1238 15.5244 21.9218C14.7704 21.9218 14.057 21.9218 13.2896 21.9218Z" fill="#EE1C46"/>
<path d="M7.01065 27.1588C7.01065 27.9519 7.02191 28.745 7.0084 29.5381C6.99265 30.3954 6.56279 30.8053 5.65807 30.8119C4.23346 30.8252 2.8066 30.823 1.37975 30.8119C0.43451 30.8053 0.013655 30.3954 0.00915385 29.4827C0.000151601 27.8722 -0.00434952 26.2594 0.0114044 24.6489C0.0181561 23.7915 0.454765 23.3839 1.36174 23.3751C2.78635 23.3618 4.2132 23.364 5.64006 23.3751C6.5853 23.3817 7.00165 23.7915 7.0129 24.7043C7.01966 25.5239 7.01065 26.3414 7.01065 27.1588ZM4.62281 28.5456C4.62281 27.5465 4.62281 26.6006 4.62281 25.6657C3.83736 25.6657 3.10593 25.6657 2.38125 25.6657C2.38125 26.6515 2.38125 27.582 2.38125 28.5456C3.13068 28.5456 3.84411 28.5456 4.62281 28.5456Z" fill="#EE1C46"/>
</g>
<defs>
<clipPath id="clip0_378_3392">
<rect width="30" height="30" fill="white" transform="translate(0 0.822998)"/>
</clipPath>
</defs>
</svg>
