<svg width="31" height="34" viewBox="0 0 31 34" fill="none" xmlns="http://www.w3.org/2000/svg">
<path d="M14.0954 17.3736C13.2298 17.3736 12.3643 17.3823 11.5009 17.367C11.2768 17.3626 11.1604 17.4417 11.0528 17.6306C10.587 18.4434 10.1103 19.2518 9.62263 20.0515C9.37878 20.4535 9.00971 20.6029 8.58792 20.515C8.19469 20.4315 7.88713 20.1438 7.85198 19.733C7.83221 19.5155 7.88054 19.2562 7.99038 19.0651C9.38098 16.6354 10.7694 14.2013 12.1951 11.7892C13.0848 10.2844 15.1257 10.2998 16.0154 11.809C17.4258 14.2035 18.8076 16.6178 20.196 19.0256C20.5079 19.566 20.3717 20.1438 19.8884 20.414C19.3963 20.6886 18.8515 20.5216 18.5308 19.9768C18.0672 19.1881 17.6081 18.3951 17.1578 17.5954C17.0611 17.4241 16.9513 17.3648 16.7557 17.367C15.8682 17.378 14.9829 17.3736 14.0954 17.3736ZM15.8924 15.4382C15.844 15.3503 15.8133 15.2866 15.7759 15.2229C15.3278 14.4474 14.8818 13.6741 14.4315 12.9008C14.2008 12.5054 13.9943 12.5054 13.7658 12.903C13.3155 13.6873 12.8695 14.4759 12.4214 15.2624C12.3928 15.3129 12.3775 15.3722 12.3533 15.4382C13.5374 15.4382 14.6951 15.4382 15.8924 15.4382Z" fill="#EE1C46"/>
<path d="M14.0264 24.1661C12.3063 24.1661 10.5862 24.1661 8.86606 24.1661C8.73865 24.1661 8.60904 24.1683 8.48162 24.1551C8.01589 24.1089 7.66 23.7311 7.63145 23.261C7.60508 22.8172 7.91484 22.3954 8.3564 22.2922C8.50139 22.2592 8.65297 22.2482 8.80016 22.2482C12.2931 22.246 15.7861 22.246 19.279 22.246C19.3757 22.246 19.4724 22.2482 19.5668 22.2614C20.0897 22.3361 20.4543 22.7513 20.4346 23.2412C20.4148 23.7575 20.0194 24.1551 19.4724 24.1595C17.6556 24.1683 15.841 24.1639 14.0242 24.1639C14.0264 24.1639 14.0264 24.1661 14.0264 24.1661Z" fill="#FBA2B4"/>
<path d="M18.1378 9.8164C17.7775 9.8164 17.448 9.8186 17.1207 9.8164C16.4748 9.81201 16.031 9.42317 16.0244 8.86078C16.0201 8.2918 16.455 7.90076 17.1053 7.89637C17.4348 7.89417 17.7643 7.89637 18.1378 7.89637C18.1378 7.53829 18.1356 7.20217 18.1378 6.86606C18.1444 6.2158 18.5288 5.78741 19.1022 5.78741C19.68 5.78741 20.0556 6.20921 20.06 6.86825C20.0622 7.19558 20.06 7.52511 20.06 7.89637C20.4313 7.89637 20.7784 7.89417 21.1277 7.89637C21.7582 7.90296 22.1756 8.28741 22.1734 8.85639C22.1712 9.41878 21.7472 9.80761 21.1211 9.8142C20.7806 9.8186 20.4423 9.8142 20.06 9.8142C20.06 10.1855 20.0622 10.5326 20.06 10.8797C20.0534 11.4992 19.6492 11.9298 19.0912 11.9232C18.5486 11.9166 18.1488 11.486 18.14 10.8907C18.1334 10.5501 18.1378 10.2096 18.1378 9.8164Z" fill="#EE1C46"/>
<path d="M14.0478 25.4184C15.0298 25.4184 16.014 25.4096 16.996 25.4228C17.4793 25.4294 17.8198 25.7457 17.9098 26.2093C17.9889 26.6245 17.7671 27.0594 17.3672 27.2286C17.2244 27.2901 17.0575 27.3274 16.9037 27.3274C14.9925 27.334 13.0812 27.3384 11.1678 27.3274C10.5636 27.3252 10.1397 26.9078 10.1397 26.3674C10.1375 25.8094 10.5658 25.4184 11.1985 25.414C12.1498 25.4074 13.0988 25.4118 14.05 25.4118C14.0478 25.4162 14.0478 25.4162 14.0478 25.4184Z" fill="#FBA2B4"/>
<path fill-rule="evenodd" clip-rule="evenodd" d="M5.4701 2.96672C4.02458 2.96672 2.85466 4.13664 2.85466 5.58216V27.878C2.85466 29.3231 4.02619 30.4935 5.4701 30.4935H24.9482C26.3934 30.4935 27.5643 29.3235 27.5657 27.8768V9.55614C27.5657 8.94255 27.3484 8.34504 26.9519 7.87035L22.8358 3.90711C22.337 3.31161 21.5996 2.96672 20.8214 2.96672H5.4701ZM0.181641 5.58216C0.181641 2.66038 2.54832 0.293701 5.4701 0.293701H20.8214C22.3913 0.293701 23.8788 0.989312 24.8851 2.19082L29.0024 6.15559C29.7982 7.10778 30.2387 8.31122 30.2387 9.55614V27.8793C30.2359 30.7999 27.8702 33.1665 24.9482 33.1665H5.4701C2.55083 33.1665 0.181641 30.8003 0.181641 27.878V5.58216Z" fill="#EE1C46"/>
</svg>
