<svg width="36" height="25" viewBox="0 0 36 25" fill="none" xmlns="http://www.w3.org/2000/svg">
<g clip-path="url(#clip0_378_3385)">
<path d="M9.58875 10.2375C7.93717 10.6531 6.39382 11.0426 4.82643 11.436C4.82643 14.9111 4.82643 18.354 4.82643 21.8491C7.99529 21.8491 11.1521 21.8491 14.3831 21.8491C14.3831 20.0403 14.3851 18.2456 14.3831 16.4528C14.3811 15.0255 14.7179 14.6882 16.1429 14.6902C17.4177 14.6922 18.6905 14.6922 19.9652 14.6943C21.2019 14.6963 21.5867 15.0777 21.5867 16.2943C21.5867 18.0448 21.5887 19.7954 21.5928 21.5459C21.5928 21.6202 21.6048 21.6945 21.6188 21.833C22.3684 21.833 23.1261 21.833 23.9819 21.833C23.9819 21.56 23.9819 21.2709 23.9819 20.9798C23.9819 17.029 23.9799 13.0762 23.9819 9.12537C23.9819 7.75021 24.5351 7.30254 25.854 7.62775C28.8324 8.36452 31.8089 9.10931 34.7833 9.86013C35.7735 10.1111 36.1623 10.6611 35.9438 11.428C35.7354 12.1628 35.1742 12.4017 34.1921 12.1768C34.0237 12.1387 33.8493 12.1166 33.5807 12.0684C33.5807 12.3675 33.5807 12.6305 33.5807 12.8915C33.5807 16.1678 33.5807 19.4441 33.5807 22.7204C33.5807 23.9008 33.1879 24.2963 32.0153 24.2963C22.6951 24.2963 13.377 24.2963 4.05676 24.2963C2.76997 24.2963 2.39316 23.9269 2.39316 22.6621C2.39115 19.163 2.39316 15.6639 2.39316 12.0724C2.0905 12.1326 1.83595 12.1828 1.5834 12.235C0.795694 12.3996 0.206418 12.0544 0.0380528 11.3296C-0.118286 10.6611 0.254522 10.087 1.01216 9.89626C3.62382 9.23378 6.23748 8.58535 8.85115 7.93089C9.06962 7.87669 9.28409 7.81245 9.54465 7.74218C9.54465 6.80868 9.54465 5.86916 9.54465 4.86941C9.21594 4.94168 8.90927 5.02198 8.5966 5.07217C7.92113 5.17857 7.38798 4.83729 7.21961 4.20693C7.03922 3.53842 7.34388 2.9201 8.03338 2.74344C11.2463 1.92035 14.4653 1.11734 17.6883 0.328382C17.9388 0.266149 18.2375 0.320352 18.496 0.382585C21.5467 1.13541 24.5973 1.89827 27.6439 2.66514C28.5679 2.89802 28.9527 3.4521 28.7503 4.20693C28.5558 4.93164 27.9666 5.21671 27.0826 4.99789C24.2746 4.29927 21.4705 3.5866 18.6604 2.89802C18.3337 2.81772 17.9609 2.7595 17.6422 2.83378C15.7721 3.27142 13.9141 3.75122 11.9879 4.23302C11.9879 5.14043 11.9879 6.03779 11.9879 6.93516C11.9879 9.86213 11.992 12.7871 11.9859 15.7141C11.9839 16.6295 11.4768 17.1495 10.6911 17.0892C9.99362 17.035 9.59476 16.5673 9.59075 15.7462C9.58073 13.9515 9.58875 12.1527 9.58875 10.2375ZM31.1515 21.8672C31.1515 18.366 31.1515 14.9271 31.1515 11.43C29.5841 11.0406 28.0227 10.6531 26.4232 10.2556C26.4232 14.1663 26.4232 18.0007 26.4232 21.8672C27.9966 21.8672 29.534 21.8672 31.1515 21.8672ZM16.8284 17.1394C16.8284 18.7314 16.8284 20.2852 16.8284 21.8531C17.6262 21.8531 18.3798 21.8531 19.1274 21.8531C19.1274 20.2491 19.1274 18.6932 19.1274 17.1394C18.3337 17.1394 17.5961 17.1394 16.8284 17.1394Z" fill="#EE1C46"/>
<path d="M16.7785 9.33812C16.7785 9.56296 16.8065 9.78981 16.7724 10.0086C16.6742 10.6571 16.2894 11.0365 15.634 11.0887C15.0247 11.1389 14.4675 10.6691 14.3993 10.0327C14.3532 9.58906 14.3612 9.13737 14.3873 8.68969C14.4274 7.98304 14.9204 7.50324 15.5718 7.4932C16.2152 7.48115 16.7223 7.96698 16.7785 8.66359C16.7965 8.88643 16.7805 9.11127 16.7805 9.33611C16.7825 9.33812 16.7805 9.33812 16.7785 9.33812Z" fill="#FBA2B4"/>
<path d="M21.5871 9.29196C21.5811 10.5186 21.2123 11.0787 20.4045 11.0947C19.5687 11.1108 19.1819 10.5326 19.1819 9.26386C19.1819 9.0892 19.1758 8.91455 19.1839 8.7419C19.2259 7.99108 19.717 7.49121 20.3965 7.49924C21.0679 7.50727 21.549 8.01919 21.5851 8.77001C21.5951 8.94265 21.5871 9.11731 21.5871 9.29196Z" fill="#FBA2B4"/>
</g>
<defs>
<clipPath id="clip0_378_3385">
<rect width="36" height="24" fill="white" transform="translate(0 0.306274)"/>
</clipPath>
</defs>
</svg>
