<svg width="36" height="36" viewBox="0 0 36 36" fill="none" xmlns="http://www.w3.org/2000/svg">
<path d="M6.63766 14.5695C5.74974 14.5628 5.03406 15.2673 5.02737 16.1525C5.02235 17.0545 5.70794 17.7539 6.60422 17.7589C7.5005 17.764 8.21284 17.0678 8.21785 16.1843C8.22454 15.2974 7.51889 14.5762 6.63766 14.5695Z" fill="#EE1C46"/>
<path d="M15.2392 14.5695C14.3513 14.5628 13.6356 15.2673 13.6289 16.1525C13.6239 17.0545 14.3095 17.7539 15.2058 17.7589C16.1021 17.764 16.8144 17.0678 16.8194 16.1843C16.8261 15.2974 16.1205 14.5762 15.2392 14.5695Z" fill="#EE1C46"/>
<path d="M5.02737 22.7757C5.02235 23.6776 5.70794 24.3771 6.60422 24.3821C7.5005 24.3871 8.21284 23.691 8.21785 22.8075C8.22287 21.9189 7.51722 21.1994 6.63599 21.1927C5.74974 21.186 5.03239 21.8905 5.02737 22.7757Z" fill="#EE1C46"/>
<path d="M13.6309 22.7757C13.6259 23.6776 14.3115 24.3771 15.2077 24.3821C16.104 24.3871 16.8164 23.691 16.8214 22.8075C16.8264 21.9189 16.1207 21.1994 15.2395 21.1927C14.3533 21.186 13.6359 21.8905 13.6309 22.7757Z" fill="#EE1C46"/>
<path d="M21.833 16.1525C21.828 17.0545 22.5136 17.7539 23.4099 17.7589C24.3062 17.764 25.0185 17.0678 25.0235 16.1843C25.0285 15.2958 24.3229 14.5762 23.4417 14.5695C22.5554 14.5628 21.8381 15.2673 21.833 16.1525Z" fill="#EE1C46"/>
<path d="M17.0688 29.4356C13.0472 29.4591 9.02399 29.4541 5.00077 29.444C3.22494 29.4407 2.29355 28.5019 2.29355 26.7432C2.2902 22.031 2.29187 17.3205 2.29187 12.6083C2.29187 11.7917 2.29522 11.7901 3.11792 11.7901C11.2463 11.7884 19.3747 11.7934 27.503 11.7767C28.0164 11.775 28.2003 11.9139 28.1903 12.441C28.1619 14.0039 28.1669 15.5685 28.187 17.1314C28.1903 17.3373 28.3074 17.6736 28.4495 17.7221C29.0715 17.9346 29.722 18.0618 30.3925 18.2275C30.4026 18.0618 30.4159 17.9397 30.4159 17.8158C30.4176 14.2516 30.4193 10.6856 30.4109 7.12139C30.4109 6.79174 30.3591 6.45707 30.2922 6.13244C29.8825 4.106 27.8408 2.43933 25.8259 2.55647C25.8259 3.27267 25.8392 3.99723 25.8225 4.72012C25.7958 5.92327 25.0684 6.86537 23.9965 7.11303C22.4749 7.46443 21.0803 6.38679 21.0401 4.81216C21.0201 4.05078 21.0368 3.28773 21.0368 2.53806C19.8312 2.53806 18.7376 2.53806 17.5955 2.53806C17.5955 3.37307 17.6206 4.16289 17.5905 4.95272C17.5386 6.33993 16.2594 7.3657 14.8849 7.14817C13.6542 6.95406 12.8817 6.04877 12.8348 4.70171C12.8098 3.98217 12.8298 3.26095 12.8298 2.53806C11.6393 2.53806 10.5691 2.53806 9.40692 2.53806C9.40692 3.37139 9.4621 4.16457 9.39521 4.9477C9.27649 6.31149 8.19627 7.25861 6.93547 7.18665C5.59774 7.11135 4.67136 6.10399 4.65631 4.70004C4.64962 3.97715 4.65464 3.25426 4.65464 2.53639C2.1882 2.46611 0.0712445 4.59964 0.0695723 7.09462C0.0645558 13.6826 0.066228 20.2707 0.0695723 26.8587C0.0712445 29.7235 2.03603 31.6897 4.8971 31.6913C9.25308 31.6947 13.6091 31.693 17.965 31.693C18.1724 31.693 18.3781 31.693 18.6857 31.693C18.4483 31.1107 18.1874 30.6488 18.0754 30.1535C17.94 29.5645 17.639 29.4323 17.0688 29.4356Z" fill="#EE1C46"/>
<path d="M26.9961 18.8968C22.5298 18.8416 18.8293 22.4979 18.7942 26.9976C18.7591 31.4721 22.3726 35.1585 26.8273 35.1937C31.404 35.2288 35.0192 31.6796 35.066 27.1047C35.1095 22.6083 31.5143 18.9504 26.9961 18.8968ZM26.9293 32.9614C23.6853 32.9514 21.0416 30.3108 21.0366 27.0745C21.0316 23.8132 23.7137 21.119 26.951 21.1324C30.1783 21.1475 32.8353 23.8098 32.8437 27.036C32.8504 30.3091 30.1933 32.9715 26.9293 32.9614Z" fill="#FBA2B4"/>
<path d="M22.3263 4.83391C22.3531 5.46812 22.8012 5.90319 23.3915 5.9216C24.0035 5.94001 24.5085 5.49489 24.5235 4.83391C24.552 3.64583 24.5503 2.45774 24.5252 1.26966C24.5102 0.607007 24.0185 0.17528 23.3915 0.192013C22.7862 0.208747 22.3547 0.625414 22.3263 1.26966C22.3012 1.85199 22.3213 2.43599 22.3213 3.01999C22.3196 3.62575 22.2996 4.22983 22.3263 4.83391Z" fill="#FBA2B4"/>
<path d="M7.08082 5.91992C7.68113 5.89482 8.12926 5.41959 8.14933 4.75694C8.16605 4.19469 8.15268 3.63244 8.15268 3.06852C8.15268 2.48452 8.16772 1.90051 8.14933 1.31818C8.12759 0.648839 7.67945 0.205399 7.05407 0.198705C6.41028 0.192012 5.95546 0.596965 5.93539 1.28639C5.90195 2.45272 5.8986 3.62073 5.92368 4.78706C5.94208 5.49154 6.44707 5.94837 7.08082 5.91992Z" fill="#FBA2B4"/>
<path d="M15.2129 5.92159C15.8417 5.92828 16.3065 5.46811 16.3383 4.76195C16.3634 4.20305 16.3433 3.6408 16.3433 3.08022C16.345 3.08022 16.345 3.08022 16.3467 3.08022C16.3467 2.49957 16.3667 1.91724 16.3416 1.33658C16.3115 0.628752 15.8517 0.183638 15.2062 0.193678C14.5675 0.203718 14.1177 0.668913 14.1093 1.37507C14.0959 2.49622 14.0943 3.61737 14.1093 4.73852C14.1193 5.42795 14.5926 5.91322 15.2129 5.92159Z" fill="#FBA2B4"/>
<path d="M30.0465 26.2914C29.4646 26.2747 28.881 26.2696 28.2991 26.2897C27.8744 26.3048 27.7005 26.1492 27.7138 25.7107C27.7339 25.0665 27.7439 24.4172 27.6888 23.7763C27.6336 23.1288 27.167 22.764 26.545 22.7891C25.9213 22.8142 25.5216 23.2158 25.5016 23.8734C25.4849 24.4557 25.4982 25.0397 25.4982 25.6221C25.4982 26.2044 25.4849 26.7884 25.5016 27.3707C25.52 28.0652 25.9363 28.5069 26.6303 28.5203C27.774 28.5437 28.9195 28.5404 30.0649 28.522C30.7605 28.5103 31.2254 28.0317 31.2254 27.3908C31.2237 26.7499 30.7672 26.3115 30.0465 26.2914Z" fill="#FBA2B4"/>
</svg>
