<svg width="34" height="31" viewBox="0 0 34 31" fill="none" xmlns="http://www.w3.org/2000/svg">
<path d="M33.2305 11.6829L33.2278 9.84429C33.2269 9.39302 33.2033 8.98435 33.1544 8.5947C32.6179 4.31671 28.8447 0.946691 24.564 0.92313C20.662 0.900476 16.6958 0.907726 12.8591 0.914069C11.8007 0.915881 10.7423 0.917693 9.6848 0.9186C8.69437 0.919506 7.69306 1.11342 6.70806 1.49492C3.20303 2.84963 1.01555 6.04023 0.99924 9.82164C0.991085 11.9031 0.992897 14.0181 0.99471 16.0633C0.995616 17.0003 0.996522 17.3029 0.996522 18.2399V18.866C0.996522 21.7875 0.996522 24.709 0.997428 27.6304V27.7075C0.996522 27.9449 0.995616 28.214 1.05995 28.4931C1.29827 29.5343 2.03498 30.3698 3.03085 30.7277C3.36795 30.8491 3.71682 30.908 4.06388 30.908C4.7281 30.908 5.38416 30.6896 5.93238 30.2683C7.1403 29.3395 8.42886 28.3119 9.87147 27.1275C10.2584 26.8095 10.6689 26.6681 11.2008 26.6681C11.2035 26.6681 11.2053 26.6681 11.2081 26.6681C13.6502 26.6735 16.133 26.6735 18.5335 26.6735C20.4165 26.6726 22.2995 26.6735 24.1825 26.6762C24.1888 26.6762 24.1943 26.6762 24.2006 26.6762C25.2653 26.6762 26.2005 26.5403 27.0586 26.2612C30.7893 25.0497 33.2106 21.7105 33.2278 17.7551C33.2369 15.5196 33.2332 13.8803 33.2305 11.6829ZM29.9647 17.7678C29.9493 20.9792 27.5036 23.4068 24.2767 23.4132C20.0649 23.4222 15.767 23.4213 11.1374 23.4113C11.1328 23.4113 11.1283 23.4113 11.1238 23.4113C9.87056 23.4113 8.80039 23.7892 7.85345 24.5676C6.98716 25.278 6.09278 25.9876 5.2283 26.6744C4.9048 26.9309 4.5813 27.1873 4.2587 27.4447V18.1592C4.2587 17.225 4.2578 16.925 4.2578 15.9908C4.25599 13.9773 4.25508 11.8949 4.26142 9.84792C4.26958 7.04607 6.1263 4.8006 8.88103 4.25871C9.18913 4.198 9.51988 4.1681 9.88959 4.169C11.6974 4.16991 13.5052 4.169 15.3121 4.169C18.2652 4.1681 21.3181 4.16719 24.3202 4.17263C27.4619 4.17806 29.9402 6.63467 29.9638 9.76636C29.9864 12.8845 29.9765 15.3846 29.9647 17.7678Z" fill="#EE1C46"/>
<path d="M16.9476 15.3955C15.8077 15.401 14.8834 14.5021 14.8779 13.3829C14.8734 12.2684 15.8004 11.3323 16.915 11.326C18.035 11.3196 18.9665 12.2321 18.9829 13.3512C18.9992 14.4676 18.0803 15.3901 16.9476 15.3955Z" fill="#FBA2B4"/>
<path d="M10.9697 15.3963C9.82699 15.389 8.94983 14.4956 8.95708 13.3465C8.96433 12.2175 9.87955 11.3186 11.0123 11.3267C12.1377 11.3358 13.0375 12.2546 13.0312 13.3873C13.0239 14.5155 12.1132 15.4035 10.9697 15.3963Z" fill="#FBA2B4"/>
<path d="M22.8608 15.3962C21.7226 15.3899 20.821 14.4828 20.8292 13.3537C20.8373 12.2346 21.7616 11.3239 22.887 11.3267C24.0134 11.3294 24.9096 12.2419 24.906 13.3818C24.9024 14.5263 24.0125 15.4026 22.8608 15.3962Z" fill="#FBA2B4"/>
</svg>
