<svg width="25" height="29" viewBox="0 0 25 29" fill="none" xmlns="http://www.w3.org/2000/svg">
<g clip-path="url(#clip0_378_3404)">
<path d="M4.66833 12.0715C4.66181 12.3432 4.74398 12.5611 4.91222 12.7187C5.11438 12.9083 5.4248 12.9916 5.86694 12.9942C6.61819 12.9878 7.38379 12.9878 8.12331 12.9904C8.74674 12.9916 9.37148 12.9916 9.99622 12.9904C10.7527 12.9891 11.5365 12.9878 12.3048 12.9942C12.3139 12.9942 12.323 12.9942 12.3308 12.9942C13.2647 12.9942 13.4786 12.5277 13.4916 12.133C13.5008 11.8639 13.4212 11.646 13.2556 11.4871C13.0547 11.2949 12.7417 11.2014 12.2969 11.2014H12.2956C10.1488 11.2026 8.00071 11.2026 5.85259 11.2014C5.85259 11.2014 5.85259 11.2014 5.85129 11.2014C4.89005 11.2026 4.67746 11.6755 4.66833 12.0715Z" fill="#FBA2B4"/>
<path d="M4.66833 15.3958C4.66181 15.6675 4.74398 15.8853 4.91222 16.043C5.11438 16.2326 5.4248 16.3159 5.86694 16.3185C6.61819 16.3121 7.38379 16.3121 8.12331 16.3146C8.74674 16.3159 7.9368 16.3159 8.56154 16.3146C9.318 16.3134 8.79761 16.3121 9.56581 16.3185C9.57494 16.3185 9.58407 16.3185 9.5919 16.3185C10.5257 16.3185 10.7396 15.852 10.7527 15.4573C10.7618 15.1882 10.6823 14.9703 10.5166 14.8114C10.3158 14.6192 10.0027 14.5256 9.55799 14.5256H9.55668C7.40988 14.5269 8.00071 14.5269 5.85259 14.5256C5.85259 14.5256 5.85259 14.5256 5.85129 14.5256C4.89005 14.5269 4.67746 14.9998 4.66833 15.3958Z" fill="#FBA2B4"/>
<path d="M11.4667 3.78045C14.4834 3.78045 17.4924 3.78045 20.5 3.78045C21.0373 3.78045 21.5734 3.77404 22.1107 3.78429C23.7072 3.81633 24.9736 5.02224 24.9866 6.58314C25.0088 9.25127 24.9971 11.9207 24.9918 14.5888C24.9905 15.2116 24.5862 15.6102 24.0071 15.6051C23.432 15.5999 23.0433 15.195 23.0407 14.5696C23.0342 13.0676 23.0381 11.5657 23.0381 10.0638C23.0381 9.90741 23.0381 9.74978 23.0381 9.53833C22.8098 9.53833 22.6207 9.53833 22.4316 9.53833C17.0646 9.53961 11.6963 9.54089 6.32923 9.54217C6.13359 9.54217 5.93926 9.54602 5.74362 9.53833C5.06541 9.51398 4.64674 9.13978 4.65065 8.56437C4.65326 7.98897 5.07584 7.61989 5.75536 7.61989C8.22823 7.61604 10.6998 7.61733 13.1727 7.61733C16.312 7.61733 19.4514 7.61861 22.5894 7.61861C22.7172 7.61861 22.8437 7.61861 23.0276 7.61861C23.0276 7.2239 23.0629 6.85995 23.0198 6.50496C22.9559 5.98467 22.5529 5.70529 21.9268 5.70529C19.6496 5.70273 17.3724 5.70401 15.0951 5.70401C13.6644 5.70401 12.2323 5.70529 10.8015 5.70273C9.94855 5.70145 9.61987 5.39773 9.57031 4.57115C9.50771 3.52158 8.71472 2.7501 7.63871 2.73472C6.41923 2.71678 5.19844 2.72575 3.97896 2.73216C2.77774 2.73857 1.96519 3.5408 1.96388 4.72493C1.96128 9.02316 1.96258 18.8319 1.96258 23.1302C1.96258 23.7376 1.95215 24.345 1.96388 24.9512C1.98475 26.0508 2.79078 26.8645 3.91375 26.8658C9.65509 26.8748 15.3964 26.8722 21.1378 26.8632C22.1981 26.862 22.9572 26.0918 23.0394 25.0012C23.085 24.3912 23.5102 23.9708 24.0541 23.9978C24.6097 24.0259 25.0114 24.4694 24.9892 25.0742C24.9775 25.3754 24.9345 25.6804 24.8549 25.9713C24.4088 27.604 22.9324 28.7766 21.2108 28.7817C15.4043 28.7996 9.5977 28.8035 3.79115 28.7804C1.70694 28.7714 0.0192362 27.0734 0.0127149 25.0243C-0.00293621 20.0391 -0.00293621 9.54217 0.0127149 4.55705C0.0192362 2.51046 1.71216 0.853448 3.80289 0.81372C5.07062 0.789371 6.33967 0.798342 7.60871 0.811157C9.36685 0.827817 10.7441 1.81715 11.3337 3.46007C11.3715 3.56387 11.4184 3.66383 11.4667 3.78045Z" fill="#EE1C46"/>
<path d="M13.9144 20.9745C12.9042 19.2666 13.0579 17.6266 14.3586 16.5062C15.5811 15.4536 17.3382 15.4197 18.5925 16.4263C19.9615 17.5236 20.1542 19.1334 19.1537 20.9587C19.6698 21.3524 20.2043 21.7169 20.6874 22.1409C21.1877 22.5793 21.217 23.1317 20.829 23.5302C20.4495 23.919 19.8944 23.8826 19.4197 23.4357C17.7506 21.8647 15.353 21.8647 13.6655 23.4357C13.1823 23.8851 12.6418 23.919 12.2587 23.5253C11.8768 23.1317 11.911 22.5648 12.4063 22.1336C12.8834 21.7206 13.4081 21.3608 13.9144 20.9745ZM16.5121 17.5236C15.7068 17.5309 15.0687 18.1668 15.0675 18.9638C15.0662 19.7475 15.7239 20.4052 16.5146 20.4112C17.3174 20.4173 17.9946 19.7366 17.9824 18.9347C17.9702 18.1426 17.3174 17.5152 16.5121 17.5236Z" fill="#EE1C46"/>
</g>
<defs>
<clipPath id="clip0_378_3404">
<rect width="25" height="28" fill="white" transform="translate(0 0.79834)"/>
</clipPath>
</defs>
</svg>
