<svg width="28" height="35" viewBox="0 0 28 35" fill="none" xmlns="http://www.w3.org/2000/svg">
<g clip-path="url(#clip0_378_3448)">
<path d="M25.3962 2.95388C19.4992 2.95388 13.6872 2.95388 7.83526 2.95388C7.83526 10.715 7.83526 18.4494 7.83526 26.2407C13.6525 26.2407 19.4766 26.2407 25.3945 26.2407C25.3945 25.3815 25.3771 24.5046 25.3997 23.6276C25.4188 22.882 25.9219 22.3566 26.6037 22.314C27.2717 22.2714 27.8494 22.756 27.9708 23.4678C27.9934 23.5974 27.9934 23.7323 27.9934 23.8655C27.9969 25.0158 28.0055 26.1661 27.9969 27.3182C27.9882 28.4845 27.518 28.9585 26.3626 28.9585C19.0516 28.9603 11.7423 28.9567 4.43133 28.9567C3.25158 28.9567 2.62527 29.404 2.60792 30.2597C2.59057 31.1366 3.23597 31.6088 4.45042 31.6088C11.6955 31.6088 18.9423 31.6088 26.1873 31.6088C26.4042 31.6088 26.6228 31.5946 26.8362 31.6212C27.4851 31.7029 27.9917 32.2852 27.9951 32.9313C27.9969 33.5793 27.4955 34.1651 26.8483 34.2521C26.6575 34.2787 26.4597 34.2663 26.2654 34.2663C18.911 34.2663 11.5584 34.268 4.20406 34.2663C1.66239 34.2663 0.00726701 32.5905 0.00553208 30.0041C0.00206222 21.5063 0.00206222 13.0085 0.00553208 4.51071C0.00553208 1.96156 1.66239 0.271586 4.15721 0.269811C11.5549 0.266261 18.9509 0.268036 26.3487 0.269811C27.5145 0.269811 27.9917 0.733133 27.9934 1.8941C27.9986 6.8504 27.9934 11.8085 27.9969 16.7648C27.9969 17.3879 27.8147 17.8991 27.2422 18.192C26.772 18.4334 26.2446 18.4246 25.9201 18.034C25.6426 17.6985 25.4205 17.1926 25.417 16.7594C25.3806 12.444 25.3945 8.12853 25.3945 3.81484C25.3962 3.55212 25.3962 3.28939 25.3962 2.95388ZM5.17388 2.9308C4.87374 2.9308 4.63952 2.9308 4.40704 2.9308C2.99308 2.92903 2.60619 3.32844 2.60619 4.78764C2.60445 11.7357 2.60272 18.6837 2.60098 25.6336C2.60098 25.8927 2.60098 26.1501 2.60098 26.4129C3.50835 26.3525 4.33591 26.2975 5.17388 26.2407C5.17388 18.4689 5.17388 10.7487 5.17388 2.9308Z" fill="#EE1C46"/>
<path d="M16.584 10.8286C15.2446 10.8286 13.9053 10.8375 12.5659 10.825C11.6256 10.8179 11.0305 10.2836 11.0392 9.48656C11.0461 8.68595 11.6273 8.17293 12.585 8.16938C15.2637 8.1605 17.9424 8.1605 20.6212 8.16938C21.5615 8.17293 22.1635 8.71791 22.1514 9.50609C22.1392 10.3049 21.5511 10.8215 20.6021 10.8304C19.2627 10.8428 17.9233 10.8339 16.584 10.8339C16.584 10.8339 16.584 10.8321 16.584 10.8286Z" fill="#FBA2B4"/>
</g>
<defs>
<clipPath id="clip0_378_3448">
<rect width="28" height="34" fill="white" transform="translate(0 0.268066)"/>
</clipPath>
</defs>
</svg>
