<svg width="34" height="35" viewBox="0 0 34 35" fill="none" xmlns="http://www.w3.org/2000/svg">
<path d="M15.1028 13.3121C15.3405 12.0559 16.9027 11.1994 18.2888 11.5791C19.5517 11.925 20.1562 12.7608 20.1098 14.1696C20.0264 15.5489 19.9429 16.9976 19.851 18.4462C19.7861 19.4614 19.7068 20.4758 19.6411 21.491C19.609 21.9825 19.3772 22.3909 18.9067 22.6414C18.0864 23.0792 17.213 23.0679 16.3708 22.6925C15.9079 22.4862 15.6196 22.11 15.5825 21.6487C15.4855 20.4307 15.4223 19.21 15.3397 17.9911C15.2731 17.0114 15.1702 16.0326 15.134 15.0521C15.1129 14.4739 14.9923 13.8965 15.1028 13.3121Z" fill="#EE1C46"/>
<path d="M17.0218 24.1048C17.2039 24.1022 17.3869 24.1048 17.5698 24.1048V24.1039C17.7267 24.1039 17.8826 24.1039 18.0394 24.1039C18.8387 24.1039 19.3572 24.5201 19.439 25.2665C19.482 25.6592 19.5022 26.0606 19.4044 26.4516C19.2771 26.9597 18.9323 27.2657 18.3986 27.3758C17.9349 27.4712 17.4611 27.4556 16.9965 27.4139C16.3221 27.3541 15.9014 26.9987 15.7825 26.3866C15.6931 25.9245 15.6805 25.4468 15.812 24.9856C15.9638 24.4498 16.446 24.1117 17.0218 24.1048Z" fill="#EE1C46"/>
<path d="M32.3823 18.8098C31.7396 18.9147 31.0864 18.4768 30.9297 17.8258C30.8894 17.6584 30.8781 17.4842 30.8527 17.3134C30.21 12.9084 27.8582 9.6981 23.904 7.62869C23.285 7.30445 22.6117 7.08425 21.9655 6.81636C21.8701 6.97068 21.8149 7.06257 21.758 7.15447C20.8666 8.57887 19.168 9.35913 17.5526 9.08604C15.8005 8.78954 14.4661 7.53766 14.0896 5.83671C13.7359 4.23458 14.4285 2.55443 15.8285 1.58692C16.3863 1.20026 17.0193 1.01993 17.6655 0.864746C18.0149 0.864746 18.3642 0.864746 18.7145 0.864746C18.774 0.885553 18.8318 0.913295 18.8931 0.9263C20.6364 1.28608 21.7624 2.30822 22.2439 4.00657C22.3008 4.20857 22.4007 4.28053 22.5845 4.33428C25.9529 5.33301 28.6611 7.2585 30.7222 10.0718C32.3201 12.253 33.2272 14.7013 33.5118 17.3784C33.5871 18.0876 33.1047 18.691 32.3823 18.8098ZM18.1646 3.46126C17.3223 3.47253 16.6262 4.16869 16.6262 4.99837C16.6262 5.84624 17.3319 6.53287 18.1987 6.52853C19.0656 6.5242 19.7652 5.82717 19.7538 4.98103C19.7415 4.13575 19.0244 3.44913 18.1646 3.46126Z" fill="#FBA2B4"/>
<path d="M12.2498 31.0283C13.5841 31.5944 14.9614 31.9811 16.4132 32.0851C20.0065 32.3417 23.1753 31.3127 25.9229 29.0031C26.1137 28.8427 26.1663 28.7317 26.0297 28.4751C25.2128 26.9372 25.2854 25.4157 26.3353 24.0225C27.3763 22.6431 28.828 22.1091 30.5293 22.4446C32.896 22.9119 34.3214 25.1955 33.7453 27.4894C33.1779 29.7452 30.8209 31.0838 28.5251 30.444C28.343 30.3928 28.2318 30.4171 28.0952 30.5437C25.0989 33.3266 21.5213 34.666 17.2432 34.7475C16.78 34.7094 16.126 34.6764 15.4763 34.5975C13.9606 34.4137 12.5081 33.9933 11.1211 33.363C10.5905 33.122 10.3025 32.5767 10.3813 32.0374C10.5109 31.141 11.3803 30.6598 12.2498 31.0283ZM29.6922 28.0122C30.5424 28.013 31.2385 27.3359 31.2464 26.4985C31.2552 25.6541 30.5512 24.9484 29.6931 24.9423C28.8394 24.9362 28.1197 25.6393 28.1188 26.4803C28.1197 27.329 28.8193 28.0113 29.6922 28.0122Z" fill="#FBA2B4"/>
<path d="M1.81392 23.3726C1.98115 23.2068 2.00129 23.0703 1.94963 22.8523C1.53285 21.0723 1.4094 19.2728 1.64843 17.4547C2.23332 12.9977 4.29619 9.41822 7.86682 6.73673C8.52964 6.23944 9.3343 6.33695 9.78172 6.95569C10.2344 7.5824 10.0847 8.35449 9.42536 8.87483C8.99544 9.21434 8.55678 9.54853 8.16277 9.92881C5.66736 12.3364 4.36099 15.3033 4.16836 18.7755C4.10532 19.9066 4.22352 21.0262 4.48882 22.1644C4.62804 22.1644 4.73661 22.1617 4.84518 22.1653C7.4299 22.2495 9.34043 24.6349 8.85535 27.1728C8.51738 28.9448 7.08667 30.3338 5.35477 30.5723C3.52743 30.824 1.7894 29.9039 0.983862 28.256C0.180077 26.6134 0.503167 24.6712 1.81392 23.3726ZM4.73398 27.9599C5.59118 27.9644 6.30478 27.2472 6.30215 26.3838C6.29953 25.5355 5.60081 24.8255 4.75762 24.8157C3.89517 24.8051 3.18333 25.508 3.17457 26.3759C3.16669 27.2401 3.87153 27.9555 4.73398 27.9599Z" fill="#FBA2B4"/>
</svg>
